<svg height="512pt" viewBox="0 -43 512.00048 512" width="512pt" xmlns="http://www.w3.org/2000/svg"><path d="m276.019531 160.011719c5.519531 0 10-4.480469 10-10 0-5.523438-4.480469-10.003907-10-10.003907s-10 4.480469-10 10.003907c0 5.519531 4.480469 10 10 10zm0 0"/><path d="m216.015625 280.019531c5.519531 0 10-4.480469 10-10 0-5.523437-4.480469-10.003906-10-10.003906s-10 4.480469-10 10.003906c0 5.519531 4.480469 10 10 10zm0 0"/><path d="m122.9375 423.097656c3.90625 3.90625 10.238281 3.90625 14.144531 0l66.003907-66.003906c3.90625-3.90625 3.90625-10.238281 0-14.144531l-2.929688-2.929688h150.15625c12.660156 0 24.746094-4.742187 33.988281-13.324219l115.398438-105.992187c11.617187-10.789063 15.460937-27.925781 9.570312-42.636719-6.207031-15.515625-21.210937-24.78125-37.238281-24.21875v-123.84375c0-16.542968-13.457031-30.003906-30.003906-30.003906h-306.019532c-16.542968 0-30 13.460938-30 30.003906 0 0 .011719 180.316406.011719 180.46875l-18.886719 16.523438-4.054687-4.054688c-3.90625-3.902344-10.238281-3.902344-14.144531 0l-66.003906 66.003906c-3.90625 3.90625-3.90625 10.238282 0 14.144532zm3.070312-393.09375c0-5.515625 4.488282-10.003906 10-10.003906h306.019532c5.515625 0 10.003906 4.488281 10.003906 10.003906v10h-326.023438zm0 30h326.023438v20h-326.023438zm0 40.003906h326.023438v60.238282l-88.773438 54.773437c-7.4375-9.351562-18.792968-15.007812-31.234374-15.007812h-49.335938c-4.898438 0-7.171875-3.238281-10.582031-5.441407-21.128907-15.835937-47.300781-24.558593-73.703125-24.558593-26.128906 0-51.449219 8.320312-72.394532 23.609375zm4.6875 115.449219c18.742188-16.40625 42.789063-25.445312 67.707032-25.445312 22.105468 0 44.019531 7.304687 61.699218 20.558593 2.617188 1.53125 9.625 9.445313 22.585938 9.445313h49.335938c11.382812 0 20 9.253906 20 20 0 11.027344-8.972657 20-20 20h-76.007813c-5.519531 0-10 4.480469-10 10.003906 0 5.519531 4.480469 10 10 10h76.007813c22.054687 0 40-17.945312 40-40.003906 0-2.21875-.191407-4.40625-.546876-6.5625l92.089844-56.824219c9.800782-6.132812 22.808594-1.9375 27.132813 8.871094 2.839843 7.089844.988281 15.347656-4.570313 20.507812l-115.398437 105.992188c-5.570313 5.171875-12.820313 8.019531-20.417969 8.019531h-170.15625l-78.847656-78.847656zm-54.691406 28.699219 105.867188 105.867188-51.863282 51.859374-105.863281-105.863281zm0 0"/><path d="m316.019531 160.011719h106.007813c5.523437 0 10-4.480469 10-10 0-5.523438-4.476563-10.003907-10-10.003907h-106.007813c-5.519531 0-10 4.480469-10 10.003907 0 5.519531 4.480469 10 10 10zm0 0"/></svg>