<svg height="512pt" viewBox="0 -76 512 512" width="512pt" xmlns="http://www.w3.org/2000/svg"><path d="m176.390625 140.011719c-.128906-.011719-.261719-.011719-.390625-.011719-5.519531 0-10 4.480469-10 10s4.480469 10 10 10c.140625 0 .269531 0 .398438-.011719 5.339843-.207031 9.601562-4.609375 9.601562-9.988281 0-5.390625-4.269531-9.789062-9.609375-9.988281zm0 0"/><path d="m462 70c-11.027344 0-20-8.972656-20-20 0-5.523438-4.476562-10-10-10h-352c-5.523438 0-10 4.476562-10 10 0 11.027344-8.972656 20-20 20-5.523438 0-10 4.476562-10 10v140c0 5.523438 4.476562 10 10 10 11.027344 0 20 8.972656 20 20 0 5.523438 4.476562 10 10 10h352c5.523438 0 10-4.476562 10-10 0-11.027344 8.972656-20 20-20 5.523438 0 10-4.476562 10-10v-140c0-5.523438-4.476562-10-10-10zm-206 170c-30.011719 0-55.09375-25.082031-63.976562-53.503906-1.644532-5.269532-7.253907-8.207032-12.527344-6.5625-5.269532 1.648437-8.207032 7.257812-6.5625 12.527344 5.484375 17.542968 17.441406 35.554687 31.265625 47.539062h-115.464844c-3.625-14.035156-14.699219-25.109375-28.734375-28.734375v-122.53125c14.035156-3.625 25.109375-14.707031 28.734375-28.746094h115.363281c-.035156.03125-.066406.058594-.101562.085938-13.65625 11.875-24.363282 28.191406-30.960938 47.160156-1.8125 5.214844.941406 10.914063 6.160156 12.730469 5.210938 1.8125 10.914063-.945313 12.730469-6.160156 11.367188-32.683594 36.519531-53.804688 64.074219-53.804688 24.398438 0 49.878906 16.4375 63.246094 51.488281 5.121094 13.449219 6.726562 30.191407 6.742187 33.460938-.058593.519531-.074219 1.039062-.046875 1.5625 2.167969 44.109375-26.351562 93.488281-69.941406 93.488281zm196-28.734375c-14.035156 3.625-25.109375 14.699219-28.734375 28.734375h-115.390625c25.851562-22.492188 39.742188-59.953125 38.042969-94.472656.144531-8.636719-2.429688-25.859375-8.5-42.527344-5.109375-14.03125-15.511719-31.015625-29.46875-43h115.316406c3.625 14.035156 14.699219 25.109375 28.734375 28.734375zm0 0"/><path d="m256 140c-5.515625 0-10-4.484375-10-10s4.484375-10 10-10c3.542969 0 7.28125 1.808594 10.816406 5.226562 3.96875 3.839844 10.300782 3.734376 14.140625-.230468 3.839844-3.972656 3.734375-10.300782-.234375-14.140625-5.074218-4.914063-10.152344-7.691407-14.722656-9.207031v-11.648438c0-5.523438-4.476562-10-10-10s-10 4.476562-10 10v11.71875c-11.640625 4.128906-20 15.246094-20 28.28125 0 16.542969 13.457031 30 30 30 5.511719 0 10 4.484375 10 10s-4.488281 10-10 10c-4.273438 0-8.886719-2.6875-12.988281-7.5625-3.550781-4.230469-9.859375-4.777344-14.085938-1.222656-4.230469 3.554687-4.773437 9.863281-1.222656 14.089844 5.347656 6.359374 11.632813 10.792968 18.296875 13.023437v11.671875c0 5.523438 4.476562 10 10 10s10-4.476562 10-10v-11.71875c11.636719-4.128906 20-15.246094 20-28.28125 0-16.542969-13.457031-30-30-30zm0 0"/><path d="m422 140h-46c-5.523438 0-10 4.476562-10 10s4.476562 10 10 10h46c5.523438 0 10-4.476562 10-10s-4.476562-10-10-10zm0 0"/><path d="m136 140h-46c-5.523438 0-10 4.476562-10 10s4.476562 10 10 10h46c5.523438 0 10-4.476562 10-10s-4.476562-10-10-10zm0 0"/><path d="m10 360h492c5.523438 0 10-4.476562 10-10 0-25.808594 0-325.023438 0-340 0-5.523438-4.476562-10-10-10h-492c-5.523438 0-10 4.476562-10 10v340c0 5.523438 4.476562 10 10 10zm10-340h472v260h-472zm0 280h472v40h-472zm0 0"/></svg>