<?xml version="1.0" encoding="iso-8859-1"?>
<!-- Generator: Adobe Illustrator 19.0.0, SVG Export Plug-In . SVG Version: 6.00 Build 0)  -->
<svg version="1.1" id="Capa_1" xmlns="http://www.w3.org/2000/svg" xmlns:xlink="http://www.w3.org/1999/xlink" x="0px" y="0px"
	 viewBox="0 0 512 512" style="enable-background:new 0 0 512 512;" xml:space="preserve">
<g>
	<g>
		<path d="M298.083,133.297h-84.166c-7.633,0-13.845,6.211-13.845,13.845v24.867c0,7.633,6.21,13.845,13.845,13.845h84.166
			c7.634,0,13.845-6.211,13.845-13.845v-24.867C311.928,139.508,305.717,133.297,298.083,133.297z M296.927,170.853h-81.854v-22.555
			h81.854V170.853z"/>
	</g>
</g>
<g>
	<g>
		<path d="M206.025,388.303c-3.119-2.726-7.856-2.408-10.584,0.71c-1.063,1.215-2.692,1.913-4.471,1.913
			c-1.778,0-3.408-0.697-4.47-1.913c-2.726-3.119-7.464-3.437-10.584-0.71c-3.119,2.727-3.437,7.464-0.71,10.584
			c3.911,4.474,9.658,7.04,15.764,7.04c6.107,0,11.854-2.566,15.765-7.04C209.462,395.768,209.144,391.029,206.025,388.303z"/>
	</g>
</g>
<g>
	<g>
		<path d="M336.081,388.303c-3.118-2.726-7.856-2.408-10.584,0.71c-1.063,1.215-2.692,1.913-4.47,1.913
			c-1.779,0-3.408-0.697-4.471-1.913c-2.726-3.119-7.465-3.437-10.584-0.71c-3.119,2.727-3.437,7.464-0.71,10.584
			c3.911,4.474,9.657,7.04,15.765,7.04c6.106,0,11.853-2.566,15.764-7.04C339.519,395.768,339.201,391.029,336.081,388.303z"/>
	</g>
</g>
<g>
	<g>
		<path d="M464.726,217.214c5.904-1.307,10.947-4.834,14.198-9.934l20.917-32.804c6.711-10.525,3.609-24.548-6.917-31.261
			L278.629,6.574c-13.747-8.765-31.513-8.765-45.259,0L79.149,104.911c-3.493,2.227-4.519,6.864-2.292,10.357
			c2.227,3.493,6.864,4.518,10.357,2.292l154.22-98.338c8.848-5.642,20.283-5.642,29.13,0c0,0,214.118,136.531,214.294,136.643
			c3.518,2.243,4.581,7.021,2.334,10.548c0,0-20.891,32.764-20.916,32.804c-2.245,3.52-7.019,4.583-10.548,2.334L260.032,76.766
			c-2.459-1.568-5.605-1.568-8.064,0L56.272,201.55c-3.55,2.265-8.282,1.217-10.548-2.334c0,0-20.894-32.769-20.917-32.804
			c-2.233-3.502-1.156-8.322,2.333-10.548l34.082-21.732c3.493-2.227,4.519-6.864,2.292-10.357
			c-2.227-3.493-6.865-4.518-10.357-2.292l-34.082,21.732c-10.526,6.711-13.629,20.735-6.917,31.261l20.917,32.804
			c4.428,6.944,12.039,10.656,19.728,10.451v216.015H32.114c-4.142,0-7.5,3.358-7.5,7.5v63.252c0,4.142,3.358,7.5,7.5,7.5h371.947
			c4.142,0,7.5-3.358,7.5-7.5s-3.358-7.5-7.5-7.5H39.615v-48.252h432.771v48.252h-38.323c-4.142,0-7.5,3.358-7.5,7.5
			s3.358,7.5,7.5,7.5h45.823c4.142,0,7.5-3.358,7.5-7.5v-63.252c0-4.142-3.358-7.5-7.5-7.5h-20.69V217.735
			C459.394,217.741,463.085,217.577,464.726,217.214z M216.456,433.747c2.6-10.446,10.507-18.81,20.678-22.068
			c4.293,5.746,11.141,9.473,18.866,9.473c7.725,0,14.573-3.727,18.866-9.473c10.171,3.258,18.078,11.624,20.678,22.068H216.456z
			 M310.84,433.747L310.84,433.747c-3.593-21.833-22.589-38.545-45.424-38.545h-18.832c-22.834,0-41.831,16.712-45.424,38.545
			h-84.173c0.493-3.185,1.309-6.23,2.44-9.108c2.9-7.377,8.469-13.347,14.365-19.667c3.894-4.174,7.781-8.386,11.103-13.041
			c5.335-7.476,9.069-16.006,12.1-24.636c4.336-12.348,7.072-25.473,13.912-36.787c7.569-12.523,18.444-22.162,31.577-28.176
			c7.319-3.352,15.177-5.48,23.162-6.457c3.512-0.43,7.051-0.645,10.59-0.645h39.532c11.583,0,23.198,2.276,33.752,7.103
			c13.129,6.012,24,15.648,31.571,28.165c4.223,6.983,6.974,14.754,9.37,22.609c5.994,19.653,13.58,36.677,27.75,51.866
			c5.896,6.319,11.465,12.289,14.365,19.666c1.132,2.879,1.947,5.924,2.44,9.109H310.84z M340.798,303.42
			c-0.524,0.294-1.053,0.6-1.585,0.917c-13.222-12.501-30.285-20.591-49.674-23.188c-4.566-0.612-9.166-0.922-13.774-0.922h-39.532
			c-4.433,0-13.608,0.9-13.772,0.922c-19.39,2.597-36.454,10.688-49.676,23.188c-4.21-2.512-8.71-4.652-13.499-5.788
			c-3.023-0.717-6.158-1.033-9.26-0.768c12.634-52.095,53.864-86.231,105.973-86.231s93.339,34.136,105.973,86.231
			C354.491,297.134,347.224,299.812,340.798,303.42z M363.697,313.442c5.567,2.124,9.837,7.569,13.738,11.826
			c5.028,5.486,10.729,11.707,18.37,16.801c2.901,1.934,6.116,5.047,4.951,8.894c-1.24,4.095-6.971,8.239-15.527,8.239
			c-3.062-0.002-6.237-0.537-9.451-1.58c-0.01-0.003-0.02-0.009-0.03-0.012c-3.306-1.116-6.427-2.616-9.392-4.458
			c-0.08-0.05-0.16-0.1-0.24-0.15c-0.441-1.426-0.877-2.853-1.312-4.277c-2.099-6.874-4.431-13.883-7.735-20.37
			c-2.187-4.295-4.802-8.577-7.705-12.52c0.07-0.037,0.14-0.074,0.21-0.11C353.829,313.518,358.958,311.636,363.697,313.442z
			 M153.844,312.783c2.949,0.339,5.749,1.491,8.371,2.835c0.135,0.069,0.277,0.152,0.414,0.224c-2.197,2.984-4.223,6.13-6.063,9.435
			c-4.146,7.349-6.914,15.396-9.368,23.439c-0.436,1.427-0.871,2.856-1.313,4.283c-0.08,0.05-0.159,0.101-0.239,0.15
			c-5.631,3.513-12.159,6.051-18.871,6.05c-8.557-0.001-14.289-4.147-15.528-8.242c-1.164-3.845,2.049-6.958,4.95-8.893
			c7.639-5.093,13.339-11.313,18.367-16.8c3.934-4.292,7.036-7.578,9.982-9.719C147.241,313.592,150.48,312.396,153.844,312.783z
			 M444.195,433.748h-34.062v-0.001c-0.594-5.1-1.788-9.99-3.599-14.598c-3.945-10.035-10.764-17.343-17.357-24.41
			c-2.946-3.158-5.769-6.195-8.248-9.367v-11.401c1.439,0.147,2.874,0.23,4.299,0.23c0.001,0,0,0,0.001,0
			c14.452,0,26.462-7.593,29.884-18.893c2.902-9.585-1.205-19.202-10.988-25.723c-6.129-4.086-10.96-9.357-15.631-14.455
			c-3.1-3.383-6.248-6.803-9.704-9.716c-4.999-30.14-18.907-57.242-39.409-76.567c-22.418-21.131-51.252-32.3-83.38-32.3
			s-60.962,11.169-83.38,32.3c-20.501,19.324-34.408,46.424-39.407,76.563c-3.457,2.913-6.605,6.333-9.707,9.719
			c-4.671,5.097-9.5,10.368-15.631,14.455c-9.781,6.521-13.888,16.136-10.987,25.719c3.421,11.301,15.43,18.895,29.883,18.897
			c0.002,0,0.003,0,0.005,0c1.424,0,2.857-0.083,4.295-0.229v11.4c-2.478,3.171-5.301,6.208-8.248,9.367
			c-6.593,7.067-13.412,14.376-17.356,24.41c-1.812,4.607-3.006,9.498-3.6,14.599H67.805v-221.76L256,91.986l188.195,120.002
			V433.748z"/>
	</g>
</g>
<g>
</g>
<g>
</g>
<g>
</g>
<g>
</g>
<g>
</g>
<g>
</g>
<g>
</g>
<g>
</g>
<g>
</g>
<g>
</g>
<g>
</g>
<g>
</g>
<g>
</g>
<g>
</g>
<g>
</g>
</svg>
