<svg xmlns="http://www.w3.org/2000/svg" height="512pt" version="1.1" viewBox="0 0 512 512" width="512pt">
<g id="surface1">
<path d="M 490.042969 152.167969 C 503.433594 136.121094 511.5 115.484375 511.5 93 C 511.5 41.996094 470.003906 0.5 419 0.5 C 396.515625 0.5 375.878906 8.566406 359.832031 21.957031 C 327.09375 7.398438 292.191406 0 256 0 C 187.621094 0 123.335938 26.628906 74.980469 74.980469 C 26.628906 123.335938 0 187.621094 0 256 C 0 324.378906 26.628906 388.664062 74.980469 437.019531 C 123.335938 485.371094 187.621094 512 256 512 C 324.378906 512 388.664062 485.371094 437.019531 437.019531 C 485.371094 388.664062 512 324.378906 512 256 C 512 219.808594 504.601562 184.90625 490.042969 152.167969 Z M 419 15.5 C 461.734375 15.5 496.5 50.265625 496.5 93 C 496.5 135.734375 461.734375 170.5 419 170.5 C 376.265625 170.5 341.5 135.734375 341.5 93 C 341.5 50.265625 376.265625 15.5 419 15.5 Z M 256 497 C 123.113281 497 15 388.886719 15 256 C 15 123.113281 123.113281 15 256 15 C 288.101562 15 319.117188 21.183594 348.363281 33.351562 C 334.730469 49.46875 326.5 70.289062 326.5 93 C 326.5 144.003906 367.996094 185.5 419 185.5 C 441.710938 185.5 462.53125 177.269531 478.648438 163.636719 C 490.816406 192.882812 497 223.898438 497 256 C 497 388.886719 388.886719 497 256 497 Z M 256 497 " style=" stroke:none;fill-rule:nonzero;fill:rgb(0%,0%,0%);fill-opacity:1;" />
<path d="M 405.5 230.5 L 365.605469 230.5 L 341.5625 175.5 L 170.4375 175.5 L 146.394531 230.5 L 106.5 230.5 C 92.714844 230.5 81.5 241.714844 81.5 255.5 C 81.5 269.128906 92.460938 280.234375 106.03125 280.488281 C 101.304688 286.761719 98.5 294.558594 98.5 303 L 98.5 378.5 L 138.5 378.5 L 138.5 396 C 138.5 416.679688 155.320312 433.5 176 433.5 C 196.679688 433.5 213.5 416.679688 213.5 396 L 213.5 378.5 L 298.5 378.5 L 298.5 396 C 298.5 416.679688 315.320312 433.5 336 433.5 C 356.679688 433.5 373.5 416.679688 373.5 396 L 373.5 378.5 L 413.5 378.5 L 413.5 303 C 413.5 294.558594 410.695312 286.761719 405.96875 280.488281 C 419.539062 280.234375 430.5 269.128906 430.5 255.5 C 430.5 241.714844 419.285156 230.5 405.5 230.5 Z M 180.25 190.5 L 331.75 190.5 L 364.535156 265.5 L 147.464844 265.5 Z M 96.5 255.5 C 96.5 249.984375 100.984375 245.5 106.5 245.5 L 139.835938 245.5 L 131.09375 265.5 L 106.5 265.5 C 100.984375 265.5 96.5 261.015625 96.5 255.5 Z M 198.5 396 C 198.5 408.40625 188.40625 418.5 176 418.5 C 163.59375 418.5 153.5 408.40625 153.5 396 L 153.5 378.5 L 198.5 378.5 Z M 358.5 396 C 358.5 408.40625 348.40625 418.5 336 418.5 C 323.59375 418.5 313.5 408.40625 313.5 396 L 313.5 378.5 L 358.5 378.5 Z M 398.5 363.5 L 113.5 363.5 L 113.5 303 C 113.5 290.59375 123.59375 280.5 136 280.5 L 376 280.5 C 388.40625 280.5 398.5 290.59375 398.5 303 Z M 405.5 265.5 L 380.90625 265.5 L 372.164062 245.5 L 405.5 245.5 C 411.015625 245.5 415.5 249.984375 415.5 255.5 C 415.5 261.015625 411.015625 265.5 405.5 265.5 Z M 405.5 265.5 " style=" stroke:none;fill-rule:nonzero;fill:rgb(0%,0%,0%);fill-opacity:1;" />
<path d="M 156 294.5 C 140.835938 294.5 128.5 306.835938 128.5 322 C 128.5 337.164062 140.835938 349.5 156 349.5 C 171.164062 349.5 183.5 337.164062 183.5 322 C 183.5 306.835938 171.164062 294.5 156 294.5 Z M 156 334.5 C 149.105469 334.5 143.5 328.894531 143.5 322 C 143.5 315.105469 149.105469 309.5 156 309.5 C 162.894531 309.5 168.5 315.105469 168.5 322 C 168.5 328.894531 162.894531 334.5 156 334.5 Z M 156 334.5 " style=" stroke:none;fill-rule:nonzero;fill:rgb(0%,0%,0%);fill-opacity:1;" />
<path d="M 356 294.5 C 340.835938 294.5 328.5 306.835938 328.5 322 C 328.5 337.164062 340.835938 349.5 356 349.5 C 371.164062 349.5 383.5 337.164062 383.5 322 C 383.5 306.835938 371.164062 294.5 356 294.5 Z M 356 334.5 C 349.105469 334.5 343.5 328.894531 343.5 322 C 343.5 315.105469 349.105469 309.5 356 309.5 C 362.894531 309.5 368.5 315.105469 368.5 322 C 368.5 328.894531 362.894531 334.5 356 334.5 Z M 356 334.5 " style=" stroke:none;fill-rule:nonzero;fill:rgb(0%,0%,0%);fill-opacity:1;" />
<path d="M 38.464844 194.371094 L 52.902344 198.4375 C 54.207031 193.8125 55.6875 189.175781 57.308594 184.652344 L 43.1875 179.59375 C 41.449219 184.4375 39.859375 189.410156 38.464844 194.371094 Z M 38.464844 194.371094 " style=" stroke:none;fill-rule:nonzero;fill:rgb(0%,0%,0%);fill-opacity:1;" />
<path d="M 30 256 L 45 256.003906 C 45 251.054688 45.171875 246.0625 45.511719 241.160156 L 30.546875 240.128906 C 30.183594 245.371094 30 250.710938 30 256 Z M 30 256 " style=" stroke:none;fill-rule:nonzero;fill:rgb(0%,0%,0%);fill-opacity:1;" />
<path d="M 32.136719 224.710938 L 46.992188 226.761719 C 47.652344 221.988281 48.480469 217.1875 49.460938 212.496094 L 34.773438 209.433594 C 33.726562 214.464844 32.839844 219.601562 32.136719 224.710938 Z M 32.136719 224.710938 " style=" stroke:none;fill-rule:nonzero;fill:rgb(0%,0%,0%);fill-opacity:1;" />
<path d="M 256 45 L 256 30 C 195.632812 30 138.878906 53.507812 96.191406 96.195312 C 76.097656 116.289062 60.195312 139.5 48.921875 165.175781 L 62.65625 171.203125 C 73.175781 147.242188 88.027344 125.570312 106.800781 106.800781 C 146.652344 66.949219 199.640625 45 256 45 Z M 256 45 " style=" stroke:none;fill-rule:nonzero;fill:rgb(0%,0%,0%);fill-opacity:1;" />
<path d="M 294 314.5 L 309 314.5 L 309 329.5 L 294 329.5 Z M 294 314.5 " style=" stroke:none;fill-rule:nonzero;fill:rgb(0%,0%,0%);fill-opacity:1;" />
<path d="M 264 314.5 L 279 314.5 L 279 329.5 L 264 329.5 Z M 264 314.5 " style=" stroke:none;fill-rule:nonzero;fill:rgb(0%,0%,0%);fill-opacity:1;" />
<path d="M 204 314.5 L 219 314.5 L 219 329.5 L 204 329.5 Z M 204 314.5 " style=" stroke:none;fill-rule:nonzero;fill:rgb(0%,0%,0%);fill-opacity:1;" />
<path d="M 234 314.5 L 249 314.5 L 249 329.5 L 234 329.5 Z M 234 314.5 " style=" stroke:none;fill-rule:nonzero;fill:rgb(0%,0%,0%);fill-opacity:1;" />
<path d="M 402.5 104.5 L 435.5 104.5 C 451.488281 104.5 464.5 91.492188 464.5 75.5 C 464.5 59.507812 451.488281 46.5 435.5 46.5 L 387.5 46.5 L 387.5 137 L 402.5 137 Z M 402.5 61.5 L 435.5 61.5 C 443.21875 61.5 449.5 67.78125 449.5 75.5 C 449.5 83.21875 443.21875 89.5 435.5 89.5 L 402.5 89.5 Z M 402.5 61.5 " style=" stroke:none;fill-rule:nonzero;fill:rgb(0%,0%,0%);fill-opacity:1;" />
</g>
</svg>