<?xml version="1.0" encoding="utf-8"?>
<!-- Generator: Adobe Illustrator 19.0.0, SVG Export Plug-In . SVG Version: 6.00 Build 0)  -->
<svg version="1.1" id="Capa_1" xmlns="http://www.w3.org/2000/svg" xmlns:xlink="http://www.w3.org/1999/xlink" x="0px" y="0px"
	 viewBox="-304 65 671 671" style="enable-background:new -304 65 671 671;" xml:space="preserve">
<style type="text/css">
	.st0{fill:#181818;}
	.st1{enable-background:new    ;}
</style>
<g>
	<g>
		<path class="st0" d="M31.5,89C-98,89-203.3,194.3-203.3,323.8S-98,558.6,31.5,558.6s234.8-105.3,234.8-234.8S161,89,31.5,89z
			 M31.5,540.2c-119.3,0-216.4-97.1-216.4-216.4s97.1-216.4,216.4-216.4s216.4,97.1,216.4,216.4S150.8,540.2,31.5,540.2z"/>
	</g>
</g>
<g>
	<g>
		<path class="st0" d="M200.3,220c-27.7-45.1-71.4-76.7-122.8-89S-27.2,127.3-72.2,155s-76.7,71.4-89,122.8s-3.8,104.6,23.9,149.7
			s71.4,76.7,122.8,89c15.1,3.6,30.5,5.4,45.9,5.4c30.2,0,60.3-6.9,87.7-20.4c4.6-2.2,6.4-7.7,4.2-12.3c-2.2-4.6-7.7-6.4-12.3-4.2
			c-37.5,18.4-80.5,23.3-121.2,13.6c-96.4-23-156.1-120.1-133.2-216.5S-23.2,125.9,73.2,148.9c46.7,11.2,86.3,39.8,111.4,80.7
			c25.1,40.9,32.8,89.1,21.7,135.8c-7.7,32.3-24.1,61.7-47.5,85.2c-3.6,3.6-3.6,9.4,0,12.9c3.6,3.6,9.4,3.6,12.9,0
			c25.8-25.9,43.9-58.3,52.4-93.9C236.5,318.3,228,265.1,200.3,220z"/>
	</g>
</g>
<g>
	<g>
		<path class="st0" d="M145,475c-2.8-4.2-8.5-5.3-12.7-2.5l-0.3,0.2c-4.2,2.8-5.3,8.5-2.5,12.7c1.7,2.7,4.7,4,7.6,4
			c1.7,0,3.6-0.6,5.1-1.6l0.3-0.2C146.8,484.9,147.9,479.2,145,475z"/>
	</g>
</g>
<g>
	<g>
		<path class="st0" d="M57,366c-6.5-21.1-8.2-32.7-9.2-39.8c-0.8-6.1-1.5-10.4-5-13.9c-3.6-3.6-7.9-4.2-13.9-5
			c-7-1-18.7-2.7-39.8-9.2c-10.5-3.3-20.5-5-29.7-5c-17.8,0-33,6.1-45.1,18.3c-9.3,9.3-13.9,23.3-12.3,36.8
			c1.7,13.7,9.7,25.5,22.6,33.2c7.2,4.4,13.1,5.5,17.8,6.4c5.7,1.1,9.4,1.8,16.4,8.5l0.1,0.1c6.8,7,7.5,10.7,8.5,16.4
			c0.9,4.7,2,10.5,6.4,17.8c8.7,14.6,22.8,22.9,38.6,22.9c11.7,0,23.5-4.8,31.4-12.7C62.2,422.4,66.7,397.2,57,366z M30.8,427.9
			c-4.5,4.5-11.6,7.2-18.4,7.2c-6.6,0-16-2.4-22.8-14c-2.7-4.5-3.3-7.7-4.1-11.7c-1.3-6.9-2.8-14.8-13.4-25.7l-0.1-0.1l-0.2-0.2
			l-0.1-0.1l-0.1-0.1c-10.9-10.5-18.7-12-25.7-13.4c-4-0.8-7.2-1.4-11.7-4.1c-10.2-6.1-13.1-14.1-13.8-19.7
			c-0.9-7.8,1.8-16.3,7.1-21.6c8.6-8.6,19.2-12.8,32.1-12.8c7.3,0,15.5,1.4,24.3,4.1c22.5,7,35.1,8.7,42.6,9.8c1,0.1,2,0.3,2.9,0.5
			c0.2,0.9,0.3,1.9,0.5,2.9c1.1,7.5,2.8,20.2,9.8,42.6C47.1,395.9,44.2,414.4,30.8,427.9z"/>
	</g>
</g>
<g>
	<g>
		<path class="st0" d="M70.5,203.1c-6.9-6-15.7-9.2-25.5-9.2c-15.8,0-32.4,8.3-44.5,22.1c-9.5,10.8-15.3,23.9-16.3,36.9
			c-1.1,13.9,3.4,26,12.7,34.2c6.9,6,15.7,9.2,25.5,9.2c15.8,0,32.4-8.3,44.5-22.1c9.5-10.8,15.3-23.9,16.3-36.9
			C84.2,223.3,79.7,211.2,70.5,203.1z M53.1,262.1C44.3,272,32.9,278,22.3,278c-3.7,0-9-0.8-13.4-4.6c-10.5-9.2-8.1-29.9,5.3-45.2
			c8.7-9.9,20.2-15.9,30.7-15.9c3.7,0,9,0.8,13.4,4.6C68.9,226.1,66.4,246.8,53.1,262.1z"/>
	</g>
</g>
<g>
	<g>
		<path class="st0" d="M-21.6,233.7c-0.6-11-5.4-20.5-13.5-25.9c-4.9-3.3-10.7-5-17-5c-13.6,0-27.7,8.3-36.8,21.6
			c-6.3,9.3-9.5,20-9.1,30.2c0.6,11,5.4,20.5,13.5,25.9c4.9,3.3,10.7,5,17,5c13.6,0,27.7-8.3,36.8-21.6
			C-24.4,254.6-21.1,243.9-21.6,233.7z M-45.8,253.6c-5.6,8.3-14,13.6-21.6,13.6c-2.6,0-4.8-0.6-6.7-1.9c-4.4-3-5.3-8.5-5.5-11.6
			c-0.3-6.1,1.8-13,5.9-19c5.6-8.3,14-13.6,21.6-13.6c2.6,0,4.8,0.6,6.7,1.9c4.4,3,5.3,8.5,5.5,11.6
			C-39.7,240.7-41.8,247.6-45.8,253.6z"/>
	</g>
</g>
<g>
	<g>
		<path class="st0" d="M152.1,284.8c-0.9-1-1.9-2-2.9-2.9c-3.8-3.4-9.5-3.1-12.9,0.6c-3.4,3.8-3.1,9.5,0.6,12.9
			c0.5,0.5,1,0.9,1.4,1.5c4.2,4.8,5.6,11.7,3.9,19.6c-1.8,8.8-7.2,17.5-15.1,24.5s-17.2,11.1-26.2,11.8c-8,0.6-14.8-1.7-19-6.5
			c-9.2-10.5-4-30.7,11.2-44.1c0.6-0.6,1.3-1.1,1.8-1.6c3.9-3.1,4.6-8.9,1.5-12.9c-3.1-3.9-8.9-4.6-12.9-1.5
			c-0.8,0.6-1.7,1.4-2.6,2.1c-10.8,9.5-18.3,21.7-21,34.5c-2.9,13.7,0,26.3,8.1,35.6c7.3,8.3,17.9,12.8,30.2,12.8
			c1.3,0,2.7-0.1,4-0.2c12.9-1,26-6.8,36.9-16.3c10.8-9.5,18.3-21.7,21-34.5C163.1,306.6,160.2,294.1,152.1,284.8z"/>
	</g>
</g>
<g>
	<g>
		<path class="st0" d="M122.7,280.2c-0.9-5-5.8-8.3-10.7-7.3l-0.6,0.1c-5,1-8.2,5.9-7.2,10.8c0.9,4.3,4.7,7.3,9,7.3
			c0.6,0,1.2-0.1,1.8-0.2l0.4-0.1C120.4,289.9,123.6,285.2,122.7,280.2z"/>
	</g>
</g>
<g>
	<g>
		<path class="st0" d="M147.3,390.4c-5.9-8.6-16-13.6-27.9-13.6c-9.5,0-19.5,3.2-28.2,9.1c-20,13.6-27.4,37.7-16.6,53.7
			c5.9,8.6,16,13.6,27.9,13.6l0,0c9.5,0,19.5-3.2,28.2-9.1C150.8,430.4,158.2,406.4,147.3,390.4z M120.6,428.9c-5.6,3.9-12,6-17.9,6
			c-3.3,0-9.4-0.7-12.7-5.5c-5.1-7.5,0.3-20.5,11.6-28.2c5.6-3.9,12-6,17.9-6c3.3,0,9.4,0.7,12.7,5.5
			C137.3,408.1,131.9,421.1,120.6,428.9z"/>
	</g>
</g>
<g class="st1">
	<path class="st0" d="M-234.7,650.8c0.2,3.4,0,6.7-0.6,10c-0.7,3.2-1.7,6.4-3.1,9.4c-1.4,3-3.1,5.8-5.2,8.3
		c-2.1,2.6-4.5,4.8-7.2,6.9c-4.7,3.6-9.9,6.1-15.4,7.5c-5.6,1.4-11.2,1.8-17,1.2c-0.1,4.4-0.1,8-0.2,10.7c0,2.8-0.1,4.3-0.2,4.5
		c-0.2,0.5-0.7,0.8-1.6,0.9c-0.9,0.1-2,0.1-3.1-0.2c-1.1-0.2-2.3-0.7-3.3-1.3c-1.1-0.6-1.9-1.5-2.5-2.4c-0.2-0.5-0.5-1.9-0.9-4.4
		s-0.7-5.5-1.1-9.2c-0.4-3.7-0.7-7.8-1.1-12.4c-0.4-4.6-0.7-9.3-0.9-14.1c-0.4-4.6-0.7-9.1-0.9-13.5c-0.2-4.4-0.3-8.4-0.5-12.1
		c-0.9-0.2-1.7-0.7-2.3-1.3c-0.7-0.6-1.1-1.3-1.3-2.1c-0.2-0.8-0.3-1.6-0.1-2.4c0.2-0.8,0.7-1.5,1.6-2.2c0.7-0.6,1.4-1,1.9-1.3
		c-0.1-1.5-0.1-2.7-0.1-3.6c0-0.9,0-1.5,0-1.8c-0.1-1,0.1-1.8,0.6-2.6s1.1-1.3,1.8-1.8c0.7-0.4,1.5-0.8,2.3-1
		c0.8-0.2,1.4-0.3,1.9-0.3c0.4,0,1.1,0,2.1,0.1c1,0,2.1,0.1,3.3,0.2c1.2,0.1,2.3,0.3,3.4,0.6c1.1,0.3,2,0.7,2.6,1.2
		c4-1.2,8-1.9,12-2.1c4-0.2,8,0.2,12.1,1.2c3.4,0.9,6.5,2.3,9.2,4.1c2.7,1.9,5.1,4.1,7.1,6.7c2,2.6,3.6,5.5,4.8,8.6
		C-235.7,644.1-235,647.4-234.7,650.8z M-283.1,684.6c4.7,0.5,9.4,0.1,14.2-1.2c4.7-1.3,9-3.3,12.7-6.1c3.7-2.8,6.7-6.3,9-10.5
		c2.3-4.2,3.3-8.9,3-14.3c-0.1-2.6-0.5-5.1-1.3-7.5c-0.8-2.4-2-4.6-3.5-6.6c-1.5-2-3.3-3.7-5.4-5.1c-2.1-1.4-4.5-2.4-7.2-3
		c-3.2-0.6-6.5-0.8-9.9-0.5c-3.3,0.3-6.6,1.1-9.9,2.2c-0.2,4.1-0.5,9.1-0.7,15c-0.2,6-0.4,12.2-0.6,18.8c-0.1,3.2-0.2,6.3-0.2,9.5
		C-282.9,678.5-283,681.6-283.1,684.6z"/>
	<path class="st0" d="M-178,681c0.6-1.4,1.5-2.3,2.7-2.7c1.2-0.4,2.4-0.5,3.5-0.2c1.1,0.3,2,0.9,2.7,1.9c0.7,1,0.7,2.2,0.2,3.5
		c-1.9,4.8-4.6,9.2-7.9,13.3c-3.3,4.1-7.1,7.3-11.4,9.8c-4.3,2.5-8.9,4-13.9,4.5c-5,0.5-10.1-0.3-15.3-2.6
		c-5.3-2.3-9.3-5.5-12.1-9.6c-2.8-4.1-4.6-8.6-5.3-13.5c-0.7-4.9-0.5-10,0.7-15.2c1.2-5.2,3.1-10.1,5.7-14.6
		c2.6-4.5,5.9-8.5,9.9-11.9c3.9-3.4,8.3-5.7,13.2-6.9c4.5-1.1,9-1.1,13.5-0.2c4.5,0.9,8.3,2.6,11.4,5.2c3.2,2.6,5.4,5.9,6.6,9.9
		c1.3,4.1,0.9,8.7-1,14c-1.6,4.5-4,8.2-7.2,11c-3.2,2.8-6.8,4.8-10.8,6.2c-4,1.4-8.3,2.2-12.8,2.4c-4.5,0.2-8.9,0-13.1-0.5
		c1.1,4.4,2.7,7.9,4.9,10.7c2.2,2.7,4.8,4.5,7.6,5.5c2.8,0.9,5.9,0.9,9.3-0.2c3.3-1.1,6.7-3.2,10.1-6.6c1.9-1.9,3.5-3.9,5.1-6.1
		C-180.2,685.6-179,683.3-178,681z M-182.9,657.8c0.1-3.7-0.8-6.4-2.5-8.3c-1.7-1.9-4-3.2-6.6-3.8c-2.9-0.6-5.7-0.6-8.2,0.2
		c-2.6,0.8-4.9,2.1-7.1,3.8c-2.2,1.7-4.1,3.9-5.8,6.4c-1.7,2.5-3,5.2-4.1,7.9c-1.4,3.7-2.2,7.4-2.3,11.2c4,0.7,8,1,12,1
		c4,0,7.9-0.7,11.7-2.3c3.4-1.4,6.4-3.5,8.9-6.3S-183,661.7-182.9,657.8z"/>
	<path class="st0" d="M-136.5,660c0.7,0,1.3,0.2,1.6,0.7c0.4,0.5,0.5,1,0.5,1.6c0,0.6-0.2,1.1-0.5,1.5c-0.4,0.4-0.9,0.7-1.6,0.7
		h-7.2c-0.2,1.6-0.3,3.8-0.5,6.5c-0.2,2.7-0.3,5.7-0.4,8.9c-0.1,3.2-0.1,6.6-0.1,9.9c0,3.4,0.1,6.5,0.4,9.5c0.2,3,0.6,5.5,1,7.6
		c0.4,2.1,1.1,3.5,1.9,4.3c1.5,1.4,2.3,2.6,2.1,3.5s-1.2,1.4-3.3,1.3c-3-0.5-5.5-1.9-7.5-4.2c-2-2.3-3.6-5.1-4.9-8.5
		c-1.3-3.3-2.3-6.9-2.9-10.8c-0.7-3.9-1.1-7.6-1.4-11.3c-0.3-3.6-0.4-6.9-0.4-9.8c0-2.9,0-5.1,0-6.5c-0.7,0.1-1.3,0.1-1.9,0.1
		c-0.6,0-1.2,0-1.9,0.1c-0.7,0.1-1.3-0.1-1.6-0.5c-0.4-0.4-0.5-1-0.5-1.5c0-0.6,0.2-1.1,0.5-1.6c0.4-0.5,0.9-0.8,1.6-0.9
		c0.6,0,1.2-0.1,1.8-0.2c0.6-0.1,1.2-0.2,1.8-0.2c-0.2-5.6-0.1-11.2,0.3-16.8c0.4-5.6,0.9-11.2,1.5-16.8c0.2-1.2,0.5-2.2,1.2-2.9
		c0.6-0.7,1.3-1.3,2.1-1.7c0.8-0.4,1.6-0.7,2.4-0.8c0.8-0.1,1.5-0.2,2.1-0.2c4.4,0,7.5,0.4,9.4,1.3c1.9,0.9,2.6,2.4,2.2,4.5
		c-0.2,1.1-0.4,2.4-0.7,3.9c-0.2,1.2-0.5,2.7-0.8,4.5c-0.3,1.8-0.5,3.7-0.8,5.8c-0.4,3.1-0.8,6.1-1,9.2c-0.3,3-0.6,6.1-1,9.3
		c1.1,0,2.3,0,3.5,0C-138.8,659.8-137.6,659.9-136.5,660z"/>
	<path class="st0" d="M-128.6,662.8c8.6,0.2,16.3,0.3,23.1,0.5c2.9,0.1,5.8,0.2,8.6,0.2c2.8,0.1,5.3,0.2,7.5,0.2
		c2.2,0.1,4.1,0.2,5.5,0.2c1.4,0.1,2.2,0.2,2.4,0.2c0.3,0.1,0.5,0.5,0.5,1.2c0,0.7,0,1.5-0.2,2.4c-0.2,0.9-0.4,1.8-0.9,2.6
		c-0.4,0.9-0.9,1.5-1.3,1.9c-0.4,0.2-1.7,0.5-3.9,0.9s-4.9,0.7-8,1.1c-3.2,0.4-6.6,0.7-10.2,1c-3.6,0.3-7,0.6-10.2,0.9
		c-3.2,0.3-5.9,0.5-8.1,0.7c-2.2,0.2-3.5,0.3-3.8,0.3c-1,0.1-1.7-0.5-2.3-1.8c-0.5-1.3-0.8-2.3-0.8-3.2c0-0.4,0-1.1,0-2.1
		c0-1,0.1-2.1,0.2-3.2c0.1-1.1,0.3-2.1,0.5-2.9C-129.6,663.3-129.2,662.8-128.6,662.8z"/>
	<path class="st0" d="M-22.1,621.8c1.5,0,2.7,0.5,3.5,1.5c0.8,1,1.2,2.1,1.2,3.2c0,1.1-0.4,2.2-1.2,3.1c-0.8,0.9-2,1.4-3.5,1.4
		c-5.3-0.2-10.6-0.2-15.8-0.2c-5.3,0-10.6,0.1-16.1,0.4v0.1c-0.1,1-0.2,2.1-0.4,3.3c-0.2,1.1-0.3,2.3-0.4,3.8
		c-0.1,1.5-0.3,3.1-0.4,5c-0.2,2.8-0.5,6-0.7,9.5c-0.2,3.5-0.5,7.1-0.9,10.9c1.9,0,3.9,0,5.9,0.1c2,0.1,3.9,0.1,5.8,0.1
		c1.5,0,2.7,0.5,3.4,1.5c0.7,1,1.1,2.1,1,3.2c0,1.2-0.4,2.2-1.2,3.1c-0.8,0.9-1.9,1.4-3.3,1.4c-2-0.1-4-0.1-6-0.1c-2,0-4,0-6-0.1
		c-0.2,4.6-0.4,9.1-0.6,13.5c-0.2,4.4-0.3,8.3-0.4,11.7c-0.1,3.4-0.2,6.2-0.2,8.4c0,2.2-0.1,3.4-0.2,3.7c-0.2,0.5-0.7,0.8-1.6,0.9
		c-0.9,0.1-2,0-3.1-0.2c-1.1-0.2-2.3-0.6-3.4-1.2c-1.1-0.6-2-1.3-2.6-2.2c-0.7-1.5-1.2-3.8-1.6-6.9c-0.4-3.1-0.7-6.5-1-10
		c-0.2-3.5-0.4-6.9-0.5-10.2c-0.1-3.3-0.2-5.9-0.3-7.7c-1.3-0.1-2.3-0.6-2.9-1.5c-0.7-0.9-1-1.9-1-2.9c0-1.1,0.3-2,0.9-2.9
		c0.6-0.9,1.6-1.5,2.8-1.7c-0.1-3.7-0.1-7.3-0.2-10.8c0-3.5,0-6.7,0-9.5c0-2.8,0.1-5.3,0.1-7.2c0-2,0.1-3.3,0.1-4h-0.1
		c-1.5,0.2-2.6-0.2-3.3-1.1c-0.7-0.9-1.1-1.9-1.1-3c0-1.1,0.4-2.2,1.2-3.2c0.8-1,1.9-1.6,3.3-1.6c8.6-0.6,17.1-1.1,25.6-1.2
		C-39.1,621.6-30.6,621.6-22.1,621.8z"/>
	<path class="st0" d="M0.3,638.9c3.8-0.2,6.9,0.4,9.3,1.9c2.4,1.5,4.1,3.5,5.4,6c1.2,2.5,1.9,5.4,2.1,8.6c0.2,3.2,0.1,6.4-0.4,9.6
		c-0.3,1.5-1,2.4-2.1,2.9c-1.1,0.5-2.2,0.6-3.3,0.2c-1.1-0.3-2.1-1-2.9-1.9c-0.8-1-1-2.2-0.8-3.7c0.5-2.6,0.7-4.9,0.5-7.1
		c-0.1-2.1-0.7-3.8-1.6-5c-1-1.2-2.4-1.9-4.3-2.1c-1.9-0.2-4.3,0.3-7.3,1.6c-3.8,1.6-6.8,4.4-8.9,8.2c-2.2,3.9-3.8,8.4-4.9,13.7
		c-0.7,3.3-1.3,6.8-1.6,10.4c-0.4,3.6-0.5,7.1-0.5,10.5c0,3.4,0.1,6.5,0.4,9.4c0.3,2.9,0.7,5.2,1.2,7c0.2,0.7,0.3,1.3,0.5,1.8
		c0.2,0.4-0.3,0.9-1.4,1.3c-1.4,0.5-2.9,0.5-4.7,0.1c-1.7-0.4-3.4-1.4-5.1-2.7c-1.8-1.5-3.1-3.6-3.9-6.3c-0.8-2.6-1.3-5.5-1.6-8.5
		c-0.2-3-0.3-6.1-0.3-9.2c0-3.1,0.1-5.9,0.1-8.4c-0.1-3.7-0.1-7.3,0-10.8c0.1-3.6,0.2-6.8,0.2-9.7c0.1-2.9,0.2-5.3,0.3-7.2
		c0.1-1.9,0.2-3.1,0.2-3.5c0-0.8,0.3-1.5,0.8-2c0.5-0.5,1.2-0.9,1.9-1.2s1.5-0.4,2.3-0.5c0.8-0.1,1.4-0.1,2,0
		c0.5,0.1,1.3,0.2,2.6,0.4c1.2,0.2,2.5,0.4,3.8,0.7c1.3,0.3,2.5,0.7,3.6,1.1c1.1,0.4,1.8,1,2.1,1.5c2.4-1.9,4.9-3.5,7.8-4.8
		C-5.5,639.8-2.6,639,0.3,638.9z"/>
	<path class="st0" d="M38.5,653.9c-0.7,10.5-1.4,19.9-2.1,28.2c-0.2,3.6-0.5,7.1-0.8,10.5c-0.3,3.4-0.5,6.5-0.8,9.3
		c-0.2,2.8-0.4,5-0.6,6.7c-0.2,1.7-0.3,2.6-0.4,2.8c-0.2,0.4-0.7,0.6-1.5,0.6c-0.8,0-1.7-0.1-2.7-0.4c-1-0.2-2-0.6-3-1.2
		c-1-0.5-1.7-1.2-2.2-1.9c-0.3-0.5-0.6-2.1-0.9-4.8c-0.3-2.7-0.6-6-0.9-9.9c-0.3-3.9-0.5-8-0.7-12.4c-0.2-4.4-0.4-8.5-0.5-12.3
		c-0.2-3.8-0.3-7.1-0.4-9.8c-0.1-2.7-0.1-4.3-0.1-4.8c0-0.7,0.2-1.3,0.7-1.8c0.4-0.4,1-0.8,1.6-1.2c0.6-0.3,1.3-0.5,2-0.6
		c0.7-0.1,1.3-0.1,1.8-0.1s1.4,0,2.7,0.1c1.3,0.1,2.6,0.2,3.9,0.4c1.3,0.2,2.4,0.4,3.4,0.9C38,652.8,38.5,653.3,38.5,653.9z
		 M29.8,645.7c-2.4,0-4.1-0.7-5.3-2.1c-1.2-1.4-1.8-3-1.8-4.6c0-1.7,0.6-3.2,1.8-4.6c1.2-1.4,3-2.1,5.4-2.1c2.4,0,4.3,0.7,5.5,2.1
		c1.2,1.4,1.8,3,1.8,4.6c0,1.7-0.7,3.2-1.9,4.6C34,645,32.2,645.7,29.8,645.7z"/>
	<path class="st0" d="M98.8,681c0.6-1.4,1.5-2.3,2.7-2.7c1.2-0.4,2.4-0.5,3.5-0.2c1.1,0.3,2,0.9,2.7,1.9c0.7,1,0.8,2.2,0.2,3.5
		c-1.9,4.8-4.6,9.2-7.9,13.3c-3.3,4.1-7.1,7.3-11.4,9.8c-4.3,2.5-8.9,4-13.9,4.5c-5,0.5-10.1-0.3-15.3-2.6
		c-5.3-2.3-9.3-5.5-12.1-9.6c-2.8-4.1-4.6-8.6-5.3-13.5c-0.7-4.9-0.5-10,0.7-15.2c1.2-5.2,3.1-10.1,5.7-14.6
		c2.6-4.5,5.9-8.5,9.9-11.9c3.9-3.4,8.3-5.7,13.2-6.9c4.5-1.1,9-1.1,13.5-0.2c4.5,0.9,8.3,2.6,11.4,5.2c3.2,2.6,5.4,5.9,6.6,9.9
		c1.3,4.1,0.9,8.7-1,14c-1.6,4.5-4,8.2-7.2,11c-3.2,2.8-6.8,4.8-10.8,6.2c-4,1.4-8.3,2.2-12.8,2.4c-4.5,0.2-8.9,0-13.1-0.5
		c1.1,4.4,2.7,7.9,4.9,10.7c2.2,2.7,4.8,4.5,7.6,5.5c2.8,0.9,5.9,0.9,9.3-0.2c3.3-1.1,6.7-3.2,10.1-6.6c1.9-1.9,3.5-3.9,5.1-6.1
		C96.6,685.6,97.8,683.3,98.8,681z M93.9,657.8c0.1-3.7-0.8-6.4-2.5-8.3c-1.7-1.9-4-3.2-6.6-3.8c-2.9-0.6-5.7-0.6-8.2,0.2
		c-2.6,0.8-4.9,2.1-7.1,3.8c-2.2,1.7-4.1,3.9-5.8,6.4c-1.7,2.5-3,5.2-4.1,7.9c-1.4,3.7-2.2,7.4-2.3,11.2c4,0.7,8,1,12,1
		c4,0,7.9-0.7,11.7-2.3c3.4-1.4,6.4-3.5,8.9-6.3S93.8,661.7,93.9,657.8z"/>
	<path class="st0" d="M187.5,662.3c1.4,7.4,2.2,14.9,2.4,22.5c0.2,7.6,0.3,15.2,0.4,22.8c0.1,1.5-0.4,2.6-1.3,3.3
		c-0.9,0.8-2,1.2-3.2,1.2c-1.2,0-2.3-0.4-3.3-1.2c-1-0.8-1.5-1.9-1.5-3.3c-0.1-7.4-0.2-14.8-0.3-22.2c-0.1-7.4-1-14.8-2.5-22.1
		c-1-4.9-2.6-8.8-5-11.6c-2.4-2.8-5-4.4-8-4.8c-3-0.4-6,0.3-9.3,2.2c-3.2,1.9-6.2,5.1-8.9,9.4c-2.7,3.7-5.1,7.5-7.2,11.6
		c-2.1,4.1-4.1,8.2-5.8,12.5c-1.8,4.3-3.4,8.6-4.9,13c-1.5,4.4-3,8.8-4.6,13.1c-0.9,0.7-1.9,1.2-3,1.3c-1.1,0.2-2.3,0.1-3.3-0.1
		c-1.1-0.2-2.1-0.6-3-1.1c-0.9-0.5-1.5-1.2-1.7-1.9c-0.2-0.5-0.3-1.8-0.5-4c-0.2-2.1-0.4-4.8-0.5-8c-0.1-3.2-0.2-6.7-0.3-10.7
		c-0.1-4-0.1-8-0.1-12.2s0-8.2,0.1-12.2c0.1-4,0.2-7.6,0.2-10.8c0.1-3.2,0.2-5.9,0.3-8c0.1-2.1,0.2-3.5,0.2-4c0-0.8,0.3-1.5,0.9-2
		c0.6-0.5,1.2-1,1.9-1.3c0.7-0.3,1.5-0.5,2.3-0.6c0.8-0.1,1.5-0.1,2.1,0c0.6,0.1,1.5,0.2,2.9,0.3c1.3,0.1,2.7,0.3,4.1,0.7
		c1.4,0.3,2.6,0.8,3.6,1.3c1,0.6,1.5,1.3,1.4,2.1c-0.3,2.4-0.7,5-1,7.9c-0.4,2.9-0.7,5.9-1.1,8.9c-0.4,3.1-0.8,6.2-1.2,9.4
		c-0.4,3.2-0.8,6.3-1.1,9.3c0,0.3,0,0.6-0.1,0.9c0,0.2-0.1,0.5-0.1,0.7c0.2-0.3,0.3-0.7,0.5-1c0.2-0.4,0.3-0.7,0.5-1
		c1.4-3.1,3.1-6.5,5.2-10.3s4.4-7.4,7.1-10.9c2.7-3.5,5.7-6.6,8.9-9.2c3.3-2.6,6.8-4.4,10.7-5.2c4-0.8,7.5-0.7,10.5,0.4
		c3,1.1,5.7,2.8,7.9,5.2c2.2,2.4,4.1,5.3,5.5,8.7C185.7,654.9,186.7,658.5,187.5,662.3z"/>
	<path class="st0" d="M260.8,620.1c0.6,0.1,1.5,0.1,2.9,0.2c1.4,0,2.8,0.2,4.2,0.4c1.4,0.2,2.7,0.6,3.8,1.1c1.1,0.5,1.6,1.2,1.5,2.2
		c-0.1,1.1-0.2,2.3-0.2,3.7c-0.1,1.1-0.1,2.6-0.2,4.3c0,1.7-0.1,3.6-0.3,5.6c-0.2,4.1-0.5,8.6-0.7,13.8c-0.2,5.1-0.5,10.4-0.7,15.9
		c-0.2,5.4-0.4,10.8-0.5,16s-0.2,9.9-0.3,14.1c-0.1,4.2-0.2,7.6-0.2,10.3c-0.1,2.7-0.2,4.1-0.2,4.4c-0.2,0.5-0.7,0.8-1.6,0.9
		c-0.9,0.1-2,0-3.1-0.2c-1.1-0.3-2.3-0.8-3.3-1.4c-1.1-0.6-1.9-1.5-2.5-2.4c-0.7-1.1-1.2-3-1.6-5.8c-0.4-2.8-0.8-5.9-1.1-9.1
		c-0.3-3.2-0.5-6.4-0.7-9.5c-0.1-3.1-0.2-5.4-0.2-7.1c-1,2-2.2,4.3-3.8,6.9c-1.5,2.6-3.3,5.1-5.2,7.7c-1.9,2.6-4,5.1-6.3,7.5
		c-2.3,2.4-4.7,4.6-7.2,6.5c-2.5,1.9-5.1,3.5-7.9,4.6c-2.7,1.2-5.5,1.7-8.2,1.6c-4.2,0-8-1.1-11.2-3.3c-3.2-2.2-5.8-5.1-7.7-8.6
		c-1.9-3.7-3.2-7.5-3.8-11.7c-0.6-4.1-0.5-8.3,0.1-12.4c0.6-4.1,1.8-8.1,3.5-11.9c1.7-3.8,3.9-7.3,6.5-10.5c2.4-2.8,5.1-5.3,8.2-7.2
		c3.1-2,6.5-3.5,10-4.4c3.5-1,7.2-1.5,10.9-1.5c3.7,0,7.4,0.6,11,1.7c1.7,0.5,3.4,1.2,5.1,2c1.7,0.9,3.3,1.8,4.7,3
		c-0.1-2.8-0.2-5.5-0.2-8c-0.1-2.5-0.1-4.7-0.2-6.6c0-1.9-0.1-3.5-0.1-4.7c0-1.3,0-2,0-2.4c0-1,0.3-1.8,0.8-2.6
		c0.5-0.7,1.2-1.3,1.9-1.8c0.7-0.4,1.5-0.8,2.3-1C259.6,620.2,260.2,620.1,260.8,620.1z M209.8,700.3c1.9,1.7,4,2.6,6,2.8
		c2.1,0.2,4.1-0.2,6.2-1c2.1-0.9,4.1-2.1,6-3.7c1.9-1.6,3.7-3.4,5.4-5.3c1.7-1.9,3.2-3.8,4.6-5.7c1.4-1.9,2.5-3.5,3.4-4.9
		c2.4-3.6,4.5-7.3,6.5-11.1c2-3.8,3.5-7.8,4.7-11.9c-0.1-0.3-0.3-0.7-0.6-1.2c-1.7-2.4-3.9-4.2-6.7-5.5c-2.8-1.3-5.6-2.1-8.4-2.6
		c-6.1-0.6-11.7,0.3-16.8,3c-5.1,2.6-9.1,6.6-12.1,11.7c-1.4,2.4-2.5,5.3-3.3,8.5c-0.9,3.2-1.3,6.5-1.3,9.8c0,3.3,0.4,6.5,1.4,9.5
		S207.4,698.3,209.8,700.3z"/>
	<path class="st0" d="M300,704.3c0.7-0.2,1.3,0,1.8,0.4c0.5,0.4,0.8,0.9,0.9,1.4c0.1,0.5,0.1,1.1-0.2,1.6c-0.2,0.6-0.7,1-1.5,1.2
		c-2.4,0.6-4.9,1.2-7.4,1.8c-2.5,0.6-5,1.2-7.5,1.9c-0.7,0.2-1.3,0-1.9-0.5c-0.6-0.5-1.2-1.2-1.6-2c-0.5-0.8-0.9-1.7-1.3-2.6
		c-0.4-0.9-0.6-1.6-0.8-2.2c-0.8-2.7-1.5-6.2-2-10.6c-0.5-4.4-1-9.1-1.3-14.3c-0.3-5.2-0.5-10.4-0.7-15.9
		c-0.1-5.4-0.2-10.6-0.2-15.4c0-4.8-0.1-9.1-0.1-12.8c0-3.7,0-6.4,0-8.1c0-1,0.2-1.8,0.7-2.5c0.5-0.7,1.1-1.3,1.8-1.7
		c0.7-0.4,1.5-0.8,2.3-0.9c0.8-0.2,1.4-0.2,2-0.2c0.6,0,1.5,0,2.9,0.1c1.3,0.1,2.7,0.2,4.1,0.5c1.4,0.2,2.6,0.6,3.7,1.2
		c1,0.5,1.5,1.3,1.4,2.3c-0.2,4.1-0.3,8.5-0.5,13.4c-0.2,4.9-0.4,9.9-0.7,15.1c-0.2,5.2-0.5,10.3-0.7,15.5
		c-0.2,5.1-0.4,9.9-0.5,14.5c-0.1,4.5-0.2,8.6-0.2,12.3s0.1,6.5,0.4,8.6c1.1-0.3,2.3-0.6,3.5-1C297.5,705,298.7,704.7,300,704.3z"/>
	<path class="st0" d="M350,640.9c0.5,0,1.4,0,2.7,0.1c1.3,0,2.7,0.2,4.1,0.4c1.4,0.2,2.7,0.7,3.8,1.3s1.6,1.5,1.5,2.7v1.2
		c0,0.4,0,0.9-0.1,1.5c0,0.6-0.1,1.3-0.2,2.1c-0.4,10.8-1.2,21.6-2.3,32.3c-1.1,10.8-3.1,21.4-6.1,31.8c-0.7,2.2-1.7,4.4-2.8,6.8
		c-1.1,2.3-2.6,4.4-4.3,6.3c-1.7,1.9-3.7,3.4-6,4.6c-2.3,1.2-4.8,1.8-7.7,1.8c-2.5-0.2-4.9-1-7.1-2.6c-2.2-1.5-4.1-3.5-5.7-5.8
		c-1.6-2.3-2.8-4.8-3.6-7.5c-0.8-2.7-1.1-5.3-0.7-7.9c0.1-1,0.5-1.8,1.3-2.4c0.8-0.6,1.6-1.1,2.5-1.2c0.9-0.2,1.7,0,2.6,0.4
		c0.8,0.4,1.3,1.1,1.6,2.2c0.3,1,0.6,2.1,1,3.4c0.3,1.3,0.8,2.6,1.4,3.8c0.6,1.2,1.4,2.2,2.4,3c1,0.8,2.2,1.2,3.8,1.2
		c1.5,0,2.8-0.8,3.8-2.3c1-1.5,1.9-3.3,2.6-5.5c0.7-2.2,1.2-4.5,1.6-6.9s0.7-4.6,0.9-6.5c0.4-2.8,0.7-5.7,0.9-8.6
		c0.2-2.9,0.4-5.7,0.7-8.3c-2.3,3.3-4.9,6-7.9,8.2c-3,2.1-6.6,3.1-10.7,3c-2.3,0-4.4-0.4-6.3-1.3c-1.9-0.9-3.6-2-5.2-3.3
		c-1.5-1.4-2.9-3-4.1-4.7c-1.2-1.8-2.2-3.7-3-5.6c-2-5.3-3.1-10.7-3.3-16.3c-0.2-5.6,0.1-11.1,0.7-16.7c0.2-1.5,0.8-2.5,1.9-3.2
		c1.1-0.7,2.2-1,3.3-1c1.1,0,2.1,0.3,3,1c0.9,0.7,1.3,1.8,1.1,3.2c-0.5,4.1-0.8,8.2-1,12.2c-0.2,4,0.2,7.9,1.1,11.8
		c0.3,1.4,0.8,2.9,1.3,4.6c0.6,1.7,1.3,3.3,2.3,4.8c0.9,1.5,2,2.8,3.3,3.8c1.3,1,2.8,1.5,4.6,1.5c2.5,0.1,4.7-0.6,6.5-1.9
		c1.8-1.4,3.4-3.2,4.7-5.4c1.3-2.2,2.5-4.7,3.3-7.5c0.9-2.8,1.6-5.5,2.2-8.3c0.6-2.8,1-5.4,1.3-7.9c0.3-2.5,0.6-4.6,0.7-6.2
		c0.2-1.5,1.1-2.9,2.5-4.2C346.8,641.6,348.3,640.9,350,640.9z"/>
</g>
</svg>
