<?xml version="1.0" encoding="iso-8859-1"?>
<!-- Generator: Adobe Illustrator 19.0.0, SVG Export Plug-In . SVG Version: 6.00 Build 0)  -->
<svg version="1.1" id="Capa_1" xmlns="http://www.w3.org/2000/svg" xmlns:xlink="http://www.w3.org/1999/xlink" x="0px" y="0px"
	 viewBox="0 0 512 512" style="enable-background:new 0 0 512 512;" xml:space="preserve">
<g>
	<g>
		<path d="M256,0C114.841,0,0,114.841,0,256s114.841,256,256,256s256-114.841,256-256S397.159,0,256,0z M256,492
			C125.869,492,20,386.131,20,256S125.869,20,256,20s236,105.869,236,236S386.131,492,256,492z"/>
	</g>
</g>
<g>
	<g>
		<path d="M440.015,142.896C409.802,93.744,362.256,59.3,306.136,45.908c-56.123-13.392-114.097-4.127-163.249,26.086
			c-49.152,30.213-83.597,77.76-96.988,133.879c-13.392,56.121-4.127,114.097,26.086,163.249
			c30.213,49.152,77.759,83.597,133.879,96.988c16.476,3.931,33.273,5.876,50.034,5.876c32.926,0,65.702-7.508,95.55-22.21
			c4.954-2.44,6.992-8.435,4.552-13.39c-2.44-4.953-8.434-6.994-13.39-4.552c-40.873,20.133-87.788,25.397-132.104,14.822
			C105.384,421.571,40.268,315.639,65.353,210.516c25.085-105.123,131.02-170.238,236.14-145.154
			c50.924,12.152,94.067,43.407,121.483,88.008c27.416,44.601,35.822,97.208,23.671,148.131
			c-8.392,35.163-26.316,67.281-51.836,92.881c-3.899,3.912-3.89,10.243,0.023,14.143c3.909,3.898,10.242,3.889,14.142-0.022
			c28.124-28.213,47.878-63.608,57.125-102.359C479.493,250.024,470.228,192.048,440.015,142.896z"/>
	</g>
</g>
<g>
	<g>
		<path d="M379.847,420.942c-3.094-4.576-9.312-5.778-13.885-2.685l-0.315,0.213c-4.576,3.093-5.778,9.31-2.686,13.885
			c1.933,2.859,5.085,4.401,8.294,4.401c1.927,0,3.875-0.556,5.591-1.716l0.315-0.213
			C381.737,431.734,382.939,425.518,379.847,420.942z"/>
	</g>
</g>
<g>
	<g>
		<path d="M283.847,302.165c-7.127-22.99-8.914-35.745-9.982-43.365c-0.92-6.565-1.585-11.308-5.47-15.193
			c-3.887-3.888-8.632-4.553-15.199-5.473c-7.621-1.068-20.375-2.856-43.362-9.982c-11.509-3.568-22.406-5.377-32.387-5.377
			c-19.419,0-35.959,6.694-49.162,19.895c-10.079,10.081-15.224,25.434-13.425,40.071c1.833,14.918,10.571,27.776,24.605,36.205
			c7.936,4.767,14.269,5.985,19.358,6.964c6.163,1.186,10.233,1.969,17.858,9.328l0.069,0.068c7.371,7.637,8.154,11.708,9.339,17.87
			c0.979,5.089,2.198,11.422,6.964,19.357c9.528,15.865,24.862,24.963,42.072,24.963c12.785,0,25.572-5.153,34.203-13.783
			C289.487,363.554,294.372,336.117,283.847,302.165z M255.186,369.57c-4.889,4.889-12.576,7.925-20.061,7.925
			c-7.19,0-17.352-2.648-24.927-15.261c-2.941-4.897-3.616-8.401-4.469-12.838c-1.449-7.532-3.092-16.068-14.6-27.992l-0.09-0.093
			c-0.037-0.039-0.193-0.195-0.232-0.233c-0.019-0.019-0.101-0.1-0.121-0.118l-0.105-0.102
			c-11.912-11.498-20.449-13.14-27.981-14.589c-4.437-0.853-7.942-1.528-12.839-4.47c-11.074-6.651-14.297-15.362-15.051-21.499
			c-1.047-8.531,1.981-17.751,7.717-23.486c9.447-9.446,20.901-14.038,35.02-14.038c7.972,0,16.876,1.507,26.465,4.48
			c24.53,7.604,38.288,9.533,46.507,10.685c1.068,0.149,2.206,0.309,3.177,0.461c0.152,0.971,0.311,2.106,0.461,3.174
			c1.152,8.22,3.08,21.977,10.686,46.511C273.012,334.759,269.886,354.871,255.186,369.57z"/>
	</g>
</g>
<g>
	<g>
		<path d="M298.49,124.49c-7.458-6.538-17.063-9.994-27.778-9.994c-17.182,0-35.328,9-48.543,24.074
			c-10.376,11.837-16.691,26.129-17.781,40.243c-1.172,15.192,3.734,28.426,13.815,37.264c7.458,6.538,17.063,9.993,27.778,9.993
			c17.181,0,35.328-8.999,48.542-24.074c10.377-11.837,16.691-26.129,17.781-40.243C313.477,146.562,308.571,133.328,298.49,124.49z
			 M279.485,188.813c-9.474,10.806-21.998,17.257-33.503,17.257c-4.039,0-9.849-0.873-14.594-5.032
			c-11.458-10.045-8.792-32.614,5.821-49.284c9.473-10.806,21.997-17.257,33.503-17.257c4.038,0,9.849,0.874,14.595,5.033
			C296.764,149.574,294.098,172.143,279.485,188.813z"/>
	</g>
</g>
<g>
	<g>
		<path d="M198.11,157.885c-0.556-11.965-5.923-22.254-14.726-28.228c-5.343-3.626-11.745-5.543-18.513-5.543
			c-14.833,0-30.183,9.042-40.061,23.598c-6.88,10.138-10.387,21.813-9.873,32.875c0.557,11.965,5.924,22.254,14.726,28.228
			c5.343,3.627,11.745,5.543,18.513,5.543c14.831,0,30.182-9.042,40.061-23.598C195.118,180.622,198.624,168.947,198.11,157.885z
			 M171.689,179.529c-6.114,9.009-15.344,14.83-23.513,14.83c-2.787,0-5.237-0.704-7.282-2.092
			c-4.844-3.288-5.824-9.31-5.977-12.607c-0.31-6.676,2.038-14.226,6.444-20.716c6.113-9.008,15.342-14.829,23.511-14.829
			c2.787,0,5.237,0.704,7.282,2.092c4.844,3.288,5.825,9.31,5.978,12.607C178.442,165.489,176.094,173.039,171.689,179.529z"/>
	</g>
</g>
<g>
	<g>
		<path d="M387.508,213.509c-0.992-1.131-2.062-2.215-3.178-3.222c-4.102-3.698-10.425-3.371-14.123,0.732
			c-3.698,4.102-3.37,10.425,0.733,14.123c0.537,0.484,1.053,1.007,1.53,1.552c4.582,5.227,6.105,12.837,4.289,21.429
			c-2.04,9.649-7.905,19.12-16.514,26.667s-18.766,12.121-28.6,12.88c-8.748,0.673-16.102-1.831-20.684-7.058
			c-10.044-11.458-4.446-33.484,12.223-48.096c0.67-0.587,1.358-1.164,2.046-1.712c4.316-3.445,5.024-9.737,1.579-14.054
			c-3.443-4.317-9.736-5.024-14.054-1.579c-0.926,0.739-1.852,1.514-2.754,2.304c-11.838,10.376-19.969,23.719-22.898,37.569
			c-3.151,14.907-0.019,28.669,8.818,38.751c7.98,9.103,19.543,13.987,32.894,13.987c1.438,0,2.895-0.057,4.371-0.17
			c14.114-1.09,28.406-7.405,40.243-17.782c11.838-10.377,19.97-23.719,22.897-37.569
			C399.478,237.353,396.347,223.592,387.508,213.509z"/>
	</g>
</g>
<g>
	<g>
		<path d="M355.4,208.529c-1.032-5.425-6.256-8.991-11.693-7.955l-0.649,0.127c-5.414,1.095-8.915,6.37-7.82,11.784
			c0.958,4.744,5.13,8.019,9.79,8.019c0.657,0,1.324-0.065,1.992-0.2l0.425-0.083C352.87,219.189,356.431,213.954,355.4,208.529z"/>
	</g>
</g>
<g>
	<g>
		<path d="M382.342,328.614c-6.373-9.389-17.436-14.774-30.353-14.774c-10.402,0-21.322,3.523-30.75,9.921
			c-21.823,14.813-29.923,41.089-18.055,58.575c6.371,9.389,17.434,14.774,30.351,14.775c0.001,0,0.001,0,0.002,0
			c10.401,0,21.321-3.524,30.749-9.922C386.109,372.376,394.209,346.1,382.342,328.614z M353.054,370.64
			c-6.147,4.173-13.079,6.471-19.518,6.471c-3.633-0.001-10.257-0.781-13.803-6.005c-5.579-8.22,0.254-22.323,12.737-30.795
			c6.147-4.172,13.08-6.47,19.519-6.47c3.633,0,10.258,0.78,13.804,6.005C371.371,348.065,365.538,362.167,353.054,370.64z"/>
	</g>
</g>
<g>
</g>
<g>
</g>
<g>
</g>
<g>
</g>
<g>
</g>
<g>
</g>
<g>
</g>
<g>
</g>
<g>
</g>
<g>
</g>
<g>
</g>
<g>
</g>
<g>
</g>
<g>
</g>
<g>
</g>
</svg>
