<?xml version="1.0" encoding="iso-8859-1"?>
<!-- Generator: Adobe Illustrator 19.0.0, SVG Export Plug-In . SVG Version: 6.00 Build 0)  -->
<svg version="1.1" id="Capa_1" xmlns="http://www.w3.org/2000/svg" xmlns:xlink="http://www.w3.org/1999/xlink" x="0px" y="0px"
	 viewBox="0 0 480 480" style="enable-background:new 0 0 480 480;" xml:space="preserve">
<g>
	<g>
		<path d="M472,172.016h-68.72l-133.6-133.68c-3.137-3.137-8.223-3.137-11.36,0s-3.137,8.223,0,11.36l122.4,122.32H99.28
			l122.4-122.32c3.137-3.137,3.137-8.223,0-11.36s-8.223-3.137-11.36,0l-133.6,133.68H8c-4.418,0-8,3.582-8,8v64
			c0,4.418,3.582,8,8,8h17.2L56,437.296c0.634,3.912,4.037,6.771,8,6.72h352c3.963,0.051,7.366-2.808,8-6.72l30.8-185.28H472
			c4.418,0,8-3.582,8-8v-64C480,175.598,476.418,172.016,472,172.016z M409.2,428.016H70.8l-29.36-176h397.12L409.2,428.016z
			 M464,236.016H16v-48h448V236.016z"/>
	</g>
</g>
<g>
	<g>
		<path d="M256,268.016h-32c-4.418,0-8,3.582-8,8v128c0,4.418,3.582,8,8,8h32c4.418,0,8-3.582,8-8v-128
			C264,271.598,260.418,268.016,256,268.016z M248,396.016h-16v-112h16V396.016z"/>
	</g>
</g>
<g>
	<g>
		<path d="M176,268.016h-32c-4.418,0-8,3.582-8,8v128c0,4.418,3.582,8,8,8h32c4.418,0,8-3.582,8-8v-128
			C184,271.598,180.418,268.016,176,268.016z M168,396.016h-16v-112h16V396.016z"/>
	</g>
</g>
<g>
	<g>
		<path d="M336,268.016h-32c-4.418,0-8,3.582-8,8v128c0,4.418,3.582,8,8,8h32c4.418,0,8-3.582,8-8v-128
			C344,271.598,340.418,268.016,336,268.016z M328,396.016h-16v-112h16V396.016z"/>
	</g>
</g>
<g>
	<g>
		<path d="M80,196.016c-4.418,0-8,3.582-8,8v16c0,4.418,3.582,8,8,8s8-3.582,8-8v-16C88,199.598,84.418,196.016,80,196.016z"/>
	</g>
</g>
<g>
	<g>
		<path d="M400,196.016c-4.418,0-8,3.582-8,8v16c0,4.418,3.582,8,8,8s8-3.582,8-8v-16C408,199.598,404.418,196.016,400,196.016z"/>
	</g>
</g>
<g>
</g>
<g>
</g>
<g>
</g>
<g>
</g>
<g>
</g>
<g>
</g>
<g>
</g>
<g>
</g>
<g>
</g>
<g>
</g>
<g>
</g>
<g>
</g>
<g>
</g>
<g>
</g>
<g>
</g>
</svg>
