<svg height="511pt" viewBox="0 -33 511.99986 511" width="511pt" xmlns="http://www.w3.org/2000/svg"><path d="m274.210938 122.0625c-9.339844.132812-19.039063 4.8125-25.535157 11.261719-10.917969 10.835937-16.964843 30.582031-4.753906 42.882812 12.21875 12.3125 32 6.402344 42.917969-4.429687 10.917968-10.835938 16.957031-30.585938 4.753906-42.882813-4.894531-4.933593-11.054688-6.925781-17.382812-6.832031zm9.113281 26.265625c-.847657 4.886719-4.148438 9.917969-7.054688 12.800781-4.84375 4.808594-15.609375 10.652344-21.703125 4.507813-6.078125-6.125-.144531-16.882813 4.675782-21.667969 4.863281-4.824219 15.601562-10.65625 21.703124-4.507812 2.425782 2.445312 2.941407 5.621093 2.378907 8.867187zm0 0"/><path d="m220.597656 158.597656c13.144532-13.042968 15.277344-32.28125 4.757813-42.882812-12.21875-12.308594-32-6.402344-42.917969 4.433594-10.910156 10.828124-16.945312 30.597656-4.757812 42.878906 12.21875 12.3125 32 6.40625 42.917968-4.429688zm-34.644531-15c.851563-4.890625 4.148437-9.921875 7.046875-12.800781 4.871094-4.835937 15.601562-10.667969 21.707031-4.515625 4.617188 4.652344 2.476563 14.574219-4.675781 21.671875-4.859375 4.824219-15.605469 10.652344-21.703125 4.507813-2.425781-2.441407-2.9375-5.621094-2.375-8.863282zm0 0"/><path d="m341.601562 179.28125c-12.21875-12.3125-32-6.402344-42.917968 4.433594-13.144532 13.042968-15.277344 32.28125-4.753906 42.882812 12.210937 12.308594 32.003906 6.398438 42.914062-4.433594 10.921875-10.835937 16.964844-30.582031 4.757812-42.882812zm-8.410156 19.414062c-.648437 4.433594-3.167968 9.105469-6.910156 12.824219-4.839844 4.800781-15.617188 10.644531-21.707031 4.507813-4.613281-4.648438-2.472657-14.570313 4.675781-21.667969 7.125-7.070313 26.339844-12.078125 23.941406 4.335937zm0 0"/><path d="m309.558594 295.96875c12.214844 12.3125 32 6.40625 42.917968-4.429688 10.917969-10.835937 16.960938-30.582031 4.753907-42.882812-12.210938-12.308594-31.996094-6.40625-42.917969 4.429688-13.140625 13.046874-15.277344 32.28125-4.753906 42.882812zm15.320312-32.234375c4.746094-4.710937 15.570313-10.695313 21.707032-4.507813 6.082031 6.128907.152343 16.871094-4.675782 21.664063-4.855468 4.816406-15.609375 10.65625-21.707031 4.511719-4.613281-4.648438-2.472656-14.574219 4.675781-21.667969zm0 0"/><path d="m133.09375 219.730469c-7.347656 29.113281 12.421875 42.148437 29.859375 53.652343 15.304687 10.09375 26.003906 20.875 35.980469 36.253907 12.589844 19.40625 28.15625 36.441406 53.425781 30.265625 18.945313-4.628906 33.371094-18.429688 38.582031-36.917969 4.148438-14.71875 1.5-29.128906-6.914062-37.605469-6.597656-6.648437-6.707032-12.609375-6.855469-20.867187-.179687-9.890625-.40625-22.207031-13.351563-35.25-12.949218-13.046875-25.257812-13.363281-35.152343-13.621094-8.25-.210937-14.214844-.367187-20.8125-7.015625-5.761719-5.804688-14.433594-9-24.421875-9-19.371094 0-43.386719 12.550781-50.339844 40.105469zm50.339844-25.105469c5.875 0 10.894531 1.664062 13.773437 4.566406 10.839844 10.921875 22.058594 11.210938 31.074219 11.445313 9.042969.230469 16.1875.417969 24.890625 9.1875 8.707031 8.773437 8.839844 15.917969 9.003906 24.960937.164063 9.015625.367188 20.238282 11.207031 31.160156 4.472657 4.503907 5.726563 13.734376 3.125 22.96875-3.726562 13.210938-14.085937 23.089844-27.710937 26.417969-18.753906 4.582031-28.230469-9.914062-37.277344-23.859375-11.101562-17.113281-23.28125-29.382812-40.304687-40.613281-18.605469-12.269531-28.105469-19.511719-23.574219-37.457031 4.988281-19.773438 22.050781-28.777344 35.792969-28.777344zm0 0"/><path d="m440.320312 295.722656c3.15625 2.511719 7.972657 2.023438 10.539063-1.203125 40.277344-50.683593 61.417969-103.371093 61.136719-152.371093-.246094-43.453126-17.269532-82.019532-47.925782-108.597657-27.730468-24.035156-63.597656-35.605469-100.996093-32.578125-38.503907 3.117188-75.378907 21.289063-107.082031 52.679688-29.964844-29.65625-64.773438-47.613282-101.09375-52.070313-35.320313-4.332031-70.1875 4.535157-98.183594 24.96875-28.980469 21.15625-48.351563 53.09375-54.539063 89.9375-6.859375 40.855469 2.574219 86.128907 27.285157 130.925781 17.386718 31.519532 42.273437 62.851563 73.980468 93.128907 42.027344 40.132812 90.167969 73.523437 140.355469 102.601562 7.53125 4.367188 16.871094 4.355469 24.402344-.003906 67.492187-39.167969 122.238281-81.347656 162.722656-125.367187 2.804687-3.046876 2.605469-7.792969-.441406-10.597657-3.046875-2.800781-7.792969-2.605469-10.597657.445313-39.460937 42.90625-93.03125 84.136718-159.203124 122.542968-2.933594 1.699219-6.4375 1.699219-9.363282.003907-1.363281-.789063-2.742187-1.59375-4.128906-2.40625 42.859375-41.503907 128.179688-124.71875 131.125-127.675781 20.886719-20.726563 23.238281-52.34375 5.238281-70.488282-4.289062-4.320312-9.476562-7.597656-15.234375-9.691406 2.796875-3.730469 5.140625-7.777344 6.992188-12.054688 2.996094-6.960937 4.496094-14.261718 4.460937-21.355468-.054687-11.355469-4.03125-22.199219-12.097656-30.332032-9.8125-9.878906-23.988281-14.003906-38.519531-11.785156.707031-4.417968.847656-8.941406.339844-13.390625-2.464844-21.640625-20.460938-37.277343-42.082032-37.539062-12.003906-.144531-23.871094 4.101562-33.488281 11.199219-11.363281-32-50.925781-33.6875-74.835937-15.21875-1.835938 1.421874-56.378907 55.847656-85.050782 84.871093-2.914062 2.949219-2.882812 7.695313.0625 10.609375 2.945313 2.90625 7.695313 2.878906 10.605469-.066406 26.507813-26.765625 52.816406-53.75 79.683594-80.152344 11.542969-11.34375 31.335937-17.929687 45.855469-7.710937 7.304687 5.140625 11.175781 13.792969 11.253906 22.609375.058594 6.835937 8.871094 9.984375 13.253906 4.75 12.117188-14.488282 37.144531-23.175782 52.261719-8 9.4375 9.496094 9.449219 24.429687 4.164062 35.992187-2.777343 6.082031 3.765625 12.703125 9.886719 9.960938 13.269531-5.941407 27.382812-4.199219 35.960938 4.4375 10.269531 10.351562 10.226562 27.710937.957031 41.824219-2.5625 3.898437-5.738281 7.40625-9.34375 10.371093-5.269531 4.332031-2.160157 13.183594 4.640625 13.296875 12.40625.199219 23.410156 8.027344 26.5 20.25 2.730468 10.800782-.5625 23.773438-9.390625 34.117188-24.761719 29.019531-54.230469 53.453125-81.566407 79.925781-18.035156 18.03125-36.640624 35.53125-54.960937 53.273437-47.070313-28.652343-87.441406-58.945312-120.058594-90.089843-28.960937-27.65625-51.96875-56.117188-68.460937-84.671875 2.644531-2.6875 28.222656-28.632813 38.289062-38.835938 2.910156-2.949218 2.878906-7.695312-.070312-10.605468-2.914063-2.875-7.734375-2.839844-10.605469.070312-11.898437 12.054688-34.917969 35.410156-35.074219 35.570312-19.53125-38.8125-26.753906-77.4375-20.910156-112.25 5.535156-32.957031 22.792969-61.476562 48.589844-80.304687 24.910156-18.183594 55.988281-26.066406 87.511718-22.199219 35.035157 4.296875 68.742188 22.648438 97.472657 53.066406 1.417969 1.5 3.390625 2.351563 5.453125 2.351563s4.035156-.851563 5.453125-2.351563c30.300781-32.078124 65.859375-50.617187 102.835937-53.609374 33.355469-2.703126 65.300782 7.582031 89.960938 28.960937 51.820312 44.921875 67.242187 136.648437-15.132813 240.296875-2.578125 3.242188-2.035156 7.957031 1.207031 10.535156zm0 0"/></svg>