<?xml version="1.0" encoding="utf-8"?>
<!-- Generator: Adobe Illustrator 19.0.0, SVG Export Plug-In . SVG Version: 6.00 Build 0)  -->
<svg version="1.1" id="Layer_1" xmlns="http://www.w3.org/2000/svg" xmlns:xlink="http://www.w3.org/1999/xlink" x="0px" y="0px"
	 viewBox="-304 65 671 671" style="enable-background:new -304 65 671 671;" xml:space="preserve">
<style type="text/css">
	.st0{fill:#181818;}
	.st1{fill:none;}
	.st2{enable-background:new    ;}
</style>
<path class="st0" d="M49.7,223.3c-9.3,0.1-19,4.8-25.5,11.2c-10.9,10.8-16.9,30.5-4.7,42.8c12.2,12.3,31.9,6.4,42.8-4.4
	c10.9-10.8,16.9-30.5,4.7-42.8C62.1,225.2,56,223.2,49.7,223.3z M58.8,249.5c-0.8,4.9-4.1,9.9-7,12.8c-4.8,4.8-15.6,10.6-21.7,4.5
	c-6.1-6.1-0.1-16.8,4.7-21.6c4.9-4.8,15.6-10.6,21.7-4.5C58.8,243.1,59.3,246.2,58.8,249.5z"/>
<path class="st0" d="M-3.8,259.7c13.1-13,15.2-32.2,4.7-42.8c-12.2-12.3-31.9-6.4-42.8,4.4c-10.9,10.8-16.9,30.5-4.7,42.8
	C-34.5,276.4-14.7,270.5-3.8,259.7z M-38.4,244.8c0.8-4.9,4.1-9.9,7-12.8c4.9-4.8,15.6-10.6,21.7-4.5c4.6,4.6,2.5,14.5-4.7,21.6
	c-4.8,4.8-15.6,10.6-21.7,4.5C-38.5,251.2-39,248-38.4,244.8z"/>
<path class="st0" d="M116.9,280.4c-12.2-12.3-31.9-6.4-42.8,4.4c-13.1,13-15.2,32.2-4.7,42.8c12.2,12.3,31.9,6.4,42.8-4.4
	C123.1,312.3,129.1,292.6,116.9,280.4z M108.5,299.7c-0.6,4.4-3.2,9.1-6.9,12.8c-4.8,4.8-15.6,10.6-21.7,4.5
	c-4.6-4.6-2.5-14.5,4.7-21.6C91.8,288.4,110.9,283.4,108.5,299.7z"/>
<path class="st0" d="M85,396.8c12.2,12.3,31.9,6.4,42.8-4.4s16.9-30.5,4.7-42.8c-12.2-12.3-31.9-6.4-42.8,4.4
	C76.6,367,74.5,386.2,85,396.8z M100.2,364.7c4.7-4.7,15.5-10.7,21.7-4.5c6.1,6.1,0.2,16.8-4.7,21.6c-4.8,4.8-15.6,10.6-21.7,4.5
	C91,381.6,93.1,371.7,100.2,364.7z"/>
<path class="st0" d="M-91.2,320.7c-7.3,29.1,12.4,42.1,29.8,53.5c15.3,10.1,26,20.8,35.9,36.2c12.6,19.4,28.1,36.4,53.3,30.2
	c18.9-4.6,33.3-18.4,38.5-36.8c4.1-14.7,1.5-29.1-6.9-37.5c-6.6-6.6-6.7-12.6-6.8-20.8c-0.2-9.9-0.4-22.2-13.3-35.2
	S14.1,297,4.2,296.7c-8.2-0.2-14.2-0.4-20.8-7c-5.8-5.8-14.4-9-24.4-9C-60.3,280.7-84.2,293.2-91.2,320.7z M-40.9,295.7
	c5.9,0,10.9,1.7,13.7,4.6c10.8,10.9,22,11.2,31,11.4c9,0.2,16.2,0.4,24.8,9.2c8.7,8.8,8.8,15.9,9,24.9S38,366,48.8,376.9
	c4.5,4.5,5.7,13.7,3.1,22.9c-3.7,13.2-14.1,23-27.7,26.4C5.5,430.8-4,416.3-13,402.4c-11.1-17.1-23.2-29.3-40.2-40.5
	c-18.6-12.2-28.1-19.5-23.5-37.4C-71.7,304.7-54.6,295.7-40.9,295.7z"/>
<path class="st0" d="M215.5,396.6c3.2,2.5,8,2,10.5-1.2c40.2-50.6,61.3-103.2,61-152.1c-0.2-43.4-17.2-81.9-47.8-108.4
	c-27.7-24-63.5-35.5-100.8-32.5C100,105.5,63.2,123.6,31.5,155c-29.9-29.6-64.6-47.5-100.9-52c-35.3-4.3-70.1,4.5-98,24.9
	c-28.9,21.1-48.3,53-54.4,89.8c-6.8,40.8,2.6,86,27.2,130.7c17.4,31.5,42.2,62.7,73.8,92.9c41.9,40.1,90,73.4,140.1,102.4
	c7.5,4.4,16.8,4.3,24.4,0c67.4-39.1,122-81.2,162.4-125.1c2.8-3,2.6-7.8-0.4-10.6c-3-2.8-7.8-2.6-10.6,0.4
	c-39.4,42.8-92.8,84-158.9,122.3c-2.9,1.7-6.4,1.7-9.3,0c-1.4-0.8-2.7-1.6-4.1-2.4c42.8-41.4,127.9-124.5,130.9-127.4
	c20.8-20.7,23.2-52.2,5.2-70.4c-4.3-4.3-9.5-7.6-15.2-9.7c2.8-3.7,5.1-7.8,7-12c3-6.9,4.5-14.2,4.5-21.3c-0.1-11.3-4-22.2-12.1-30.3
	c-9.8-9.9-23.9-14-38.4-11.8c0.7-4.4,0.8-8.9,0.3-13.4c-2.5-21.6-20.4-37.2-42-37.5c-12-0.1-23.8,4.1-33.4,11.2
	c-11.3-31.9-50.8-33.6-74.7-15.2c-1.8,1.4-56.3,55.7-84.9,84.7c-2.9,2.9-2.9,7.7,0.1,10.6c2.9,2.9,7.7,2.9,10.6-0.1
	c26.5-26.7,52.7-53.6,79.5-80C-28.3,194.4-8.5,187.8,6,198c7.3,5.1,11.2,13.8,11.2,22.6c0.1,6.8,8.9,10,13.2,4.7
	c12.1-14.5,37.1-23.1,52.2-8c9.4,9.5,9.4,24.4,4.2,35.9c-2.8,6.1,3.8,12.7,9.9,9.9c13.2-5.9,27.3-4.2,35.9,4.4
	c10.2,10.3,10.2,27.7,1,41.7c-2.6,3.9-5.7,7.4-9.3,10.4c-5.3,4.3-2.2,13.2,4.6,13.3c12.4,0.2,23.4,8,26.4,20.2
	c2.7,10.8-0.6,23.7-9.4,34.1c-24.7,29-54.1,53.3-81.4,79.8c-18,18-36.6,35.5-54.9,53.2c-47-28.6-87.3-58.8-119.8-89.9
	c-28.9-27.6-51.9-56-68.3-84.5c2.6-2.7,28.2-28.6,38.2-38.8c2.9-2.9,2.9-7.7-0.1-10.6c-2.9-2.9-7.7-2.8-10.6,0.1
	c-11.9,12-34.8,35.3-35,35.5c-19.5-38.7-26.7-77.3-20.9-112c5.5-32.9,22.7-61.4,48.5-80.1c24.9-18.1,55.9-26,87.3-22.2
	c35,4.3,68.6,22.6,97.3,53c1.4,1.5,3.4,2.3,5.4,2.3s4-0.8,5.4-2.3c30.2-32,65.7-50.5,102.6-53.5c33.3-2.7,65.2,7.6,89.8,28.9
	c51.7,44.8,67.1,136.4-15.1,239.8C211.7,389.3,212.2,394,215.5,396.6z"/>
<rect x="-190.6" y="639.7" class="st1" width="399.6" height="114.6"/>
<g class="st2">
	<path class="st0" d="M-161.6,716.7c1.6,0.8,2.4,1.9,2.5,3.1c0,1.3-0.4,2.5-1.2,3.6c-0.9,1.1-2,1.9-3.5,2.3
		c-1.5,0.4-3.1,0.3-4.7-0.5c-6.5-3.3-13-6.4-19.4-9.3c-6.5-2.9-13-5.7-19.6-8.5c-0.2,4.7-0.3,8.5-0.4,11.4c-0.1,2.9-0.1,4.5-0.2,4.8
		c-0.2,0.6-0.9,1-2,1.1c-1.1,0.2-2.4,0.1-3.8-0.2c-1.5-0.3-2.8-0.8-4.2-1.7c-1.3-0.8-2.4-1.8-3.1-3c-0.3-0.6-0.7-2.4-1.1-5.4
		c-0.5-3-0.9-6.8-1.4-11.3c-0.5-4.5-0.9-9.6-1.3-15.3c-0.5-5.6-0.9-11.4-1.3-17.3c-0.3-5.7-0.6-11.3-0.8-16.7
		c-0.3-5.4-0.5-10.3-0.7-14.8c-1-0.3-1.9-0.8-2.7-1.6c-0.8-0.8-1.4-1.6-1.7-2.5c-0.4-0.9-0.4-1.9-0.2-2.9c0.2-1,0.9-1.9,2-2.7
		c0.4-0.4,0.8-0.7,1.1-1c0.3-0.2,0.7-0.5,1.1-0.7c-0.1-1.8-0.2-3.3-0.2-4.4c-0.1-1.1-0.1-1.9-0.1-2.2c0-1.2,0.3-2.3,0.9-3.2
		c0.6-0.9,1.4-1.6,2.3-2.2c0.9-0.5,1.8-0.9,2.8-1.2c0.9-0.2,1.8-0.4,2.5-0.4c0.5,0,1.4,0,2.6,0.1c1.3,0.1,2.6,0.2,4,0.3
		c1.4,0.2,2.8,0.4,4.1,0.8c1.3,0.4,2.4,0.8,3.2,1.4c4.9-1.5,9.8-2.4,14.8-2.6c5-0.2,9.9,0.2,14.8,1.4c4.2,1.1,8,2.8,11.3,5.1
		c3.3,2.3,6.2,5.1,8.7,8.3c2.4,3.2,4.4,6.8,5.8,10.7c1.4,3.9,2.3,8,2.6,12.1c0.3,4.2,0,8.3-0.8,12.3c-0.8,4-2.1,7.9-3.8,11.5
		c-1.7,3.7-3.9,7.1-6.4,10.3c-2.6,3.2-5.6,6-8.9,8.5c-3.2,2.4-6.6,4.4-10.1,6c-3.6,1.6-7.2,2.8-10.9,3.6c4.7,2,9.3,4.1,13.7,6.3
		C-170.5,712.3-166.1,714.5-161.6,716.7z M-206.7,670.2c-0.1,3.9-0.2,7.8-0.2,11.7c-0.1,3.9-0.1,7.7-0.2,11.4
		c5.8,0.6,11.6,0.1,17.4-1.4c5.8-1.5,11-4,15.6-7.5c4.6-3.5,8.3-7.7,11.1-12.9c2.8-5.1,4.1-11,3.9-17.6c-0.2-3.2-0.8-6.3-1.8-9.3
		c-1-3-2.4-5.7-4.3-8.2c-1.9-2.4-4.1-4.5-6.6-6.3c-2.5-1.7-5.5-3-8.8-3.7c-4.1-0.8-8.2-1-12.3-0.6c-4.1,0.4-8.2,1.3-12.3,2.7
		c-0.2,5-0.5,11.2-0.8,18.5C-206.3,654.4-206.5,662.1-206.7,670.2z"/>
	<path class="st0" d="M-78,688.8c0.7-1.7,1.8-2.8,3.3-3.4c1.5-0.5,2.9-0.6,4.4-0.3c1.4,0.4,2.5,1.1,3.4,2.3c0.8,1.2,0.9,2.7,0.2,4.3
		c-2.4,5.9-5.7,11.4-9.8,16.4c-4.1,5-8.8,9-14.1,12.1c-5.3,3.1-11,4.9-17.2,5.6c-6.1,0.7-12.4-0.4-18.8-3.2
		c-6.5-2.8-11.5-6.7-14.9-11.8c-3.4-5-5.6-10.6-6.5-16.7c-0.9-6-0.6-12.3,0.8-18.7c1.4-6.4,3.8-12.4,7-18
		c3.2-5.6,7.3-10.5,12.1-14.6c4.8-4.1,10.3-7,16.3-8.5c5.6-1.3,11.1-1.4,16.7-0.3c5.5,1.1,10.2,3.2,14.1,6.4
		c3.9,3.2,6.6,7.2,8.2,12.2c1.5,5,1.1,10.8-1.3,17.3c-2,5.6-5,10.1-8.9,13.5c-3.9,3.4-8.3,6-13.3,7.6c-5,1.7-10.2,2.7-15.8,2.9
		c-5.6,0.3-10.9,0-16.1-0.7c1.3,5.4,3.3,9.8,6.1,13.1c2.8,3.4,5.9,5.6,9.4,6.8c3.5,1.2,7.3,1.1,11.4-0.2c4.1-1.3,8.3-4,12.5-8.1
		c2.3-2.3,4.4-4.8,6.2-7.6C-80.7,694.5-79.2,691.7-78,688.8z M-84,660.3c0.1-4.5-0.9-7.9-3.1-10.3c-2.2-2.3-4.9-3.9-8.2-4.7
		c-3.6-0.8-7-0.7-10.1,0.3c-3.2,1-6.1,2.6-8.8,4.7c-2.7,2.2-5.1,4.8-7.1,7.9c-2.1,3.1-3.7,6.4-5,9.8c-1.7,4.5-2.7,9.1-2.9,13.8
		c4.9,0.8,9.8,1.2,14.8,1.3c5,0.1,9.8-0.9,14.5-2.8c4.2-1.7,7.9-4.3,11-7.7C-85.7,669.1-84.1,665-84,660.3z"/>
	<path class="st0" d="M-32,663.7c4.1,2.8,7.8,5.6,11.2,8.3c3.3,2.8,6.2,5.7,8.6,8.8c2.3,3.1,4.1,6.4,5.3,9.8
		c1.1,3.5,1.6,7.3,1.3,11.5c-0.6,7.6-3.3,13.7-8,18.4c-4.7,4.6-10.6,7-17.8,7.1c-4.1,0-7.8-0.9-11.2-2.8c-3.4-1.8-6.2-4.3-8.6-7.3
		c-2.4-3-4.3-6.4-5.5-10.3c-1.3-3.8-1.9-7.8-1.8-11.9c0.1-1.9,0.8-3.3,2-4.2c1.2-0.9,2.5-1.4,3.9-1.4c1.4,0,2.7,0.5,3.8,1.4
		c1.1,0.9,1.7,2.3,1.6,4.2c-0.1,2.2,0.1,4.4,0.5,6.7s1.2,4.3,2.3,6.3s2.4,3.7,4,5.1c1.7,1.5,3.6,2.5,5.8,3.1c3.4,1,6.3,0.9,8.8-0.5
		c2.4-1.3,4.1-3,5-5.3c0.8-2,1-4.3,0.7-6.9c-0.4-2.6-1.4-5.1-3.1-7.5c-2.3-3.2-5.4-6.2-9.3-8.9c-3.9-2.7-8-5.8-12.1-9.3
		c-2.4-2-4.7-4-6.9-6c-2.2-2-4.2-4.3-5.8-6.8c-1.7-2.5-3-5.5-4-8.9c-1-3.4-1.4-7.5-1.3-12.3c0.1-5.5,1.7-10,4.9-13.7
		c3.2-3.6,7.1-6.2,11.7-7.8c4.6-1.6,9.5-2.1,14.9-1.6c5.3,0.5,10.1,2.2,14.4,4.9c3,1.9,5.4,4.1,7.2,6.7c1.8,2.5,3.1,5.3,4,8.3
		c0.8,3,1.3,6,1.2,9.2c-0.1,3.2-0.4,6.5-1.1,9.8c-0.4,1.8-1.3,3-2.6,3.5c-1.3,0.6-2.7,0.6-4.1,0.2c-1.4-0.4-2.6-1.2-3.5-2.5
		c-1-1.3-1.3-2.8-1-4.6c0.9-3.3,1.1-6.5,0.8-9.5c-0.4-3-1.3-5.6-2.8-7.8c-1.5-2.2-3.6-3.9-6.3-5.3c-2.7-1.3-6-2-9.8-2
		c-3.3,0.1-6.3,1-8.9,2.5c-2.6,1.6-4.1,4.1-4.5,7.5c-0.3,2.4,0,4.6,0.8,6.6c0.8,2,2.1,3.9,3.7,5.5c1.6,1.7,3.5,3.3,5.5,4.8
		C-36.3,660.7-34.2,662.2-32,663.7z"/>
	<path class="st0" d="M57.3,687c0.2-1.8,1-3,2.3-3.6c1.3-0.6,2.7-0.7,4.1-0.3c1.4,0.4,2.6,1.2,3.7,2.5c1,1.3,1.4,2.8,1,4.6
		c-0.8,4.1-2,8.2-3.5,12.3c-1.6,4.1-3.6,7.9-6,11.3c-2.5,3.4-5.5,6.3-9,8.5c-3.6,2.3-7.7,3.7-12.4,4.2c-3.9,0.5-7.6,0.3-11.2-0.7
		c-3.6-0.9-6.8-2.4-9.8-4.4c-3-2-5.7-4.4-8-7.3c-2.4-2.9-4.3-6-5.8-9.5c-1.6-3.7-2.7-7.6-3.4-11.6c-0.7-4-0.9-8.1-0.7-12.2
		c0.2-4.1,0.8-8.1,1.7-12.2c0.9-4,2.2-7.8,3.8-11.5c1.5-3.4,3.3-6.6,5.5-9.5c2.2-2.9,4.7-5.6,7.4-7.9c2.7-2.3,5.8-4.2,9.1-5.7
		s6.8-2.5,10.6-3c3.5-0.4,6.9-0.2,10.3,0.6c3.3,0.8,6.4,2.1,9.1,3.9c2.7,1.8,4.9,4.1,6.7,6.9c1.7,2.8,2.8,6,3.2,9.6
		c0.2,1.8-0.3,3.1-1.4,4c-1.2,0.9-2.5,1.3-3.9,1.3c-1.5,0-2.8-0.5-4.1-1.3c-1.3-0.9-2.1-2.3-2.3-4c-0.4-3.6-1.8-6.2-4.1-8
		c-2.4-1.7-5.1-2.4-8.3-2c-3.2,0.4-6.4,1.8-9.8,4.4c-3.4,2.6-6.2,6.5-8.5,11.6c-1.9,3.6-3.3,7.3-4,11.1c-0.8,3.8-1.3,7.4-1.4,10.7
		c-0.2,3.4-0.1,6.4,0.1,9c0.2,2.7,0.5,4.6,0.7,5.9c1.3,5.3,3.1,9.5,5.3,12.5c2.3,3.1,4.7,5.1,7.3,6.2c2.6,1,5.3,1.2,8,0.4
		c2.7-0.8,5.3-2.4,7.7-4.7c2.4-2.3,4.5-5.4,6.2-9.1C55.5,696.2,56.7,691.9,57.3,687z"/>
	<path class="st0" d="M147,636.7c0.7,0.1,1.9,0.2,3.6,0.4c1.7,0.2,3.4,0.4,5.1,0.8c1.7,0.4,3.2,0.9,4.5,1.5c1.3,0.6,1.9,1.3,1.8,2.3
		c-0.1,1-0.3,2.2-0.5,3.5c-0.3,2.2-0.6,5.3-0.9,9.3c-0.3,3.8-0.7,8.2-1,13.1c-0.4,5-0.8,10.1-1.2,15.4c-0.3,5.2-0.6,10.3-0.8,15.3
		c-0.3,5-0.5,9.5-0.6,13.4c-0.2,4-0.3,7.2-0.4,9.8c-0.1,2.5-0.2,4-0.3,4.3c-0.2,0.5-0.9,0.8-2,1c-1.2,0.2-2.4,0.1-3.8-0.2
		c-1.4-0.3-2.8-0.8-4.1-1.4c-1.3-0.6-2.4-1.4-3.1-2.4c-0.3-0.5-0.7-2-1.1-4.4c-0.5-2.4-0.9-5.6-1.3-9.3c-0.4-3.8-0.8-7.9-1.2-12.5
		c-0.4-4.6-0.7-9.3-0.9-14.1c0-0.8,0-1.6-0.1-2.5c-0.1-0.8-0.1-1.7-0.1-2.5c-3,6.4-6.3,12.6-10,18.7c-3.7,6.1-7.9,11.6-12.8,16.7
		c-2.4,2.5-5.3,5-8.7,7.4c-3.4,2.4-6.9,4.1-10.5,5.2c-3.6,1-7.1,1.1-10.4,0.1c-3.4-0.9-6.2-3.5-8.6-7.7c-2.1-3.7-3.5-7.7-4.3-11.9
		c-0.8-4.2-1-8.5-0.8-12.9c0.2-4.3,0.9-8.6,2.1-12.8c1.1-4.2,2.6-8.1,4.4-11.8c3.2-6.6,7.5-12.5,12.8-17.7c5.3-5.2,11.5-9,18.5-11.4
		c4.5-1.7,9.3-2.5,14.3-2.4c5,0.1,9.7,1.3,13.9,3.5c0.7-1.4,2-2.4,3.8-2.9C144.3,636.7,145.8,636.5,147,636.7z M135.6,655.9
		c0.4-0.9,0.9-1.7,1.6-2.4c-2.1-2.7-4.7-4.3-7.8-5c-3.1-0.6-6.3-0.6-9.7,0.1c-3.4,0.7-6.6,1.8-9.8,3.3c-3.2,1.6-5.8,3.2-7.9,5
		c-2.9,2.4-5.5,5.1-7.7,8.2c-2.2,3.1-4.1,6.3-5.6,9.7c-1.6,3.4-2.7,7-3.5,10.7c-0.8,3.7-1.2,7.4-1.2,11.1c0,1.7,0.1,3.7,0.4,6.1
		c0.2,2.4,0.8,4.5,1.6,6.5c0.8,2,2,3.5,3.5,4.5c1.4,1,3.4,1.1,5.8,0.2c3.5-1.4,6.7-3.6,9.7-6.5c2.9-2.9,5.5-5.8,7.6-8.6
		c5-6.5,9.3-13.4,12.8-20.8C129,670.6,132.4,663.2,135.6,655.9z"/>
	<path class="st0" d="M199.6,663c0.9,0,1.6,0.3,2,0.9c0.5,0.6,0.7,1.3,0.7,1.9c0,0.7-0.2,1.3-0.7,1.9c-0.5,0.6-1.1,0.8-2,0.8h-8.9
		c-0.2,2-0.4,4.7-0.7,8c-0.3,3.4-0.4,7-0.5,11c-0.1,4-0.1,8.1-0.1,12.2c0,4.2,0.1,8.1,0.5,11.7c0.3,3.7,0.7,6.8,1.3,9.4
		c0.5,2.6,1.3,4.3,2.3,5.3c1.9,1.7,2.8,3.1,2.6,4.3s-1.5,1.7-4.1,1.7c-3.7-0.6-6.8-2.3-9.2-5.2c-2.5-2.8-4.5-6.3-6.1-10.4
		c-1.6-4.1-2.8-8.5-3.6-13.3c-0.8-4.8-1.4-9.4-1.7-13.9c-0.4-4.4-0.5-8.5-0.5-12.1s0-6.2,0-8c-0.8,0.1-1.6,0.2-2.3,0.2
		s-1.5,0.1-2.3,0.1c-0.9,0.1-1.6-0.1-2-0.7c-0.5-0.5-0.7-1.2-0.7-1.9c0-0.7,0.2-1.4,0.7-2c0.5-0.6,1.1-1,2-1.1
		c0.7,0,1.4-0.1,2.2-0.2c0.8-0.1,1.5-0.2,2.2-0.2c-0.2-6.9-0.1-13.8,0.4-20.7s1.1-13.8,1.9-20.7c0.2-1.5,0.7-2.7,1.4-3.6
		c0.8-0.9,1.6-1.6,2.6-2.1c0.9-0.5,1.9-0.8,2.9-1c1-0.2,1.8-0.2,2.5-0.2c5.4,0,9.2,0.6,11.5,1.6c2.3,1.1,3.2,3,2.7,5.5
		c-0.2,1.4-0.5,3-0.9,4.8c-0.3,1.5-0.6,3.4-1,5.5c-0.4,2.2-0.7,4.6-1,7.2c-0.5,3.8-0.9,7.6-1.3,11.3c-0.4,3.8-0.8,7.6-1.3,11.5
		c1.4,0,2.8,0,4.3,0C196.8,662.7,198.2,662.8,199.6,663z"/>
	<path class="st0" d="M276.6,688.8c0.7-1.7,1.8-2.8,3.3-3.4c1.5-0.5,2.9-0.6,4.3-0.3c1.4,0.4,2.5,1.1,3.4,2.3
		c0.8,1.2,0.9,2.7,0.2,4.3c-2.4,5.9-5.7,11.4-9.8,16.4c-4.1,5-8.8,9-14.1,12.1c-5.3,3.1-11,4.9-17.2,5.6c-6.2,0.7-12.4-0.4-18.8-3.2
		c-6.5-2.8-11.5-6.7-14.9-11.8c-3.5-5-5.6-10.6-6.5-16.7c-0.9-6-0.6-12.3,0.8-18.7c1.4-6.4,3.8-12.4,7-18
		c3.2-5.6,7.3-10.5,12.2-14.6c4.8-4.1,10.3-7,16.3-8.5c5.6-1.3,11.1-1.4,16.7-0.3c5.5,1.1,10.2,3.2,14.1,6.4
		c3.9,3.2,6.6,7.2,8.2,12.2c1.5,5,1.1,10.8-1.3,17.3c-2,5.6-5,10.1-8.8,13.5c-3.9,3.4-8.3,6-13.3,7.6c-5,1.7-10.2,2.7-15.8,2.9
		c-5.5,0.3-10.9,0-16.1-0.7c1.3,5.4,3.3,9.8,6.1,13.1c2.7,3.4,5.9,5.6,9.4,6.8c3.5,1.2,7.3,1.1,11.4-0.2c4.1-1.3,8.3-4,12.5-8.1
		c2.3-2.3,4.4-4.8,6.2-7.6C273.9,694.5,275.4,691.7,276.6,688.8z M270.6,660.3c0.1-4.5-0.9-7.9-3.1-10.3c-2.2-2.3-4.9-3.9-8.2-4.7
		c-3.6-0.8-7-0.7-10.1,0.3c-3.1,1-6.1,2.6-8.8,4.7c-2.7,2.2-5.1,4.8-7.1,7.9c-2.1,3.1-3.7,6.4-5,9.8c-1.7,4.5-2.7,9.1-2.8,13.8
		c4.9,0.8,9.8,1.2,14.8,1.3c5,0.1,9.8-0.9,14.5-2.8c4.2-1.7,7.9-4.3,11-7.7C268.9,669.1,270.5,665,270.6,660.3z"/>
</g>
</svg>
