<?xml version="1.0" encoding="utf-8"?>
<!-- Generator: Adobe Illustrator 19.0.0, SVG Export Plug-In . SVG Version: 6.00 Build 0)  -->
<svg version="1.1" id="Layer_1" xmlns="http://www.w3.org/2000/svg" xmlns:xlink="http://www.w3.org/1999/xlink" x="0px" y="0px"
	 viewBox="-304 65 671 671" style="enable-background:new -304 65 671 671;" xml:space="preserve">
<style type="text/css">
	.st0{fill:#181818;}
	.st1{fill:none;}
	.st2{enable-background:new    ;}
</style>
<path class="st0" d="M105.4,243.4c-3.9,0-7.1,3.2-7.1,7.1v8.7c0,3.9,3.2,7.1,7.1,7.1s7.1-3.2,7.1-7.1v-8.7
	C112.5,246.5,109.2,243.4,105.4,243.4z"/>
<path class="st0" d="M201.4,266.1c3.9,0,7.1-3.2,7.1-7.1v-8.7c0-3.9-3.2-7.1-7.1-7.1s-7.1,3.2-7.1,7.1v8.7
	C194.3,263,197.5,266.1,201.4,266.1z"/>
<path class="st0" d="M140.4,262.4c4,1.7,8.4,2.6,13.1,2.6s9.1-0.9,13.1-2.6c4.2-1.8,2.9-8-1.6-8h-22.8
	C137.4,254.4,136.2,260.6,140.4,262.4z"/>
<path class="st0" d="M126.7,280c4,4.5,9.7,7.1,16,7.1c3.8,0,7.5-0.9,10.6-2.7c3.2,1.8,6.8,2.7,10.6,2.7c6.1,0,12-2.6,16-7.1
	c2.6-2.9,2.3-7.5-0.7-10c-2.9-2.6-7.5-2.3-10,0.7c-2.6,3-7.9,3-10.6,0c-2.7-3.2-7.9-3.2-10.7,0c-2.6,3-7.9,3-10.6,0
	c-2.6-2.9-7.1-3.2-10-0.7C124.5,272.7,124.2,277.1,126.7,280z"/>
<path class="st0" d="M-89.7,201.4c-3.9,0-7.1,3.2-7.1,7.1v9.4c0,3.9,3.2,7.1,7.1,7.1c3.9,0,7.1-3.2,7.1-7.1v-9.4
	C-82.6,204.5-85.8,201.4-89.7,201.4z"/>
<path class="st0" d="M13.9,201.4c-3.9,0-7.1,3.2-7.1,7.1v9.4c0,3.9,3.2,7.1,7.1,7.1s7.1-3.2,7.1-7.1v-9.4
	C21,204.5,17.8,201.4,13.9,201.4z"/>
<path class="st0" d="M-52,221.4c4.3,1.8,9.1,2.8,14.1,2.8s9.8-1,14.1-2.8c4.4-1.9,3.1-8.6-1.8-8.6h-24.6
	C-55.1,212.8-56.4,219.4-52,221.4z"/>
<path class="st0" d="M-10.3,230.1c-2.9-2.6-7.5-2.3-10,0.7c-3.2,3.7-9,3.3-12.2,0c-2.9-2.9-7.8-3.3-10.7,0c-3.1,3.5-9.2,3.5-12.2,0
	c-2.6-2.9-7.1-3.2-10-0.7c-2.9,2.6-3.2,7.1-0.7,10c4.2,4.7,10.3,7.5,16.8,7.5c4.1,0,8-1.1,11.4-3.1c3.4,2,7.4,3.1,11.4,3.1
	c6.5,0,12.7-2.7,16.8-7.5C-7.1,237.1-7.4,232.7-10.3,230.1z"/>
<path class="st0" d="M-123.9,326.8h-19.2c-3.2,0-5.4,2.1-5.4,4.4v59c0,2.9,3.6,4.4,7.3,4.4c3.6,0,7.3-1.5,7.3-4.4v-20h9.2
	c12.8,0,22.8-6,22.8-21.6V348C-101.9,332.5-111.6,326.8-123.9,326.8z M-116.4,349.7c0,6.3-3.1,9.3-8.3,9.3h-9.2v-19.6h9.2
	c5.2,0,8.3,2.9,8.3,9.3V349.7z"/>
<path class="st0" d="M-56.3,339.3c2.7,0,4.4-2.9,4.4-6.4c0-2.9-1.3-6.2-4.4-6.2h-33c-3.1,0-6.3,1.5-6.3,4.4v59
	c0,2.9,3.1,4.4,6.3,4.4h33c3,0,4.4-3.2,4.4-6.2c0-3.4-1.6-6.4-4.4-6.4h-24.9v-15.8h13.9c3,0,4.4-2.9,4.4-5.5c0-2.9-1.6-5.7-4.4-5.7
	h-13.9v-15.7L-56.3,339.3L-56.3,339.3z"/>
<path class="st0" d="M-5.4,326.8h-40.1c-3,0-4.4,3.3-4.4,6.4c0,3.5,1.6,6.6,4.4,6.6h12.8v50.3c0,2.9,3.6,4.4,7.3,4.4
	c3.7,0,7.3-1.5,7.3-4.4v-50.4h12.8c2.7,0,4.4-3,4.4-6.6C-1,330.1-2.3,326.8-5.4,326.8z"/>
<path class="st0" d="M36.1,344c0-2.8,2.6-5.6,9.3-5.6c7.6,0,9.4,3.5,12.7,3.5c4.1,0,5.8-5.1,5.8-7.6c0-7.3-13.5-8.1-18.4-8.1
	c-11.6,0-23.7,5.3-23.7,19.2c0,21.8,29.4,19.8,29.4,31c0,4.4-4.7,6.1-9,6.1c-8.6,0-11.4-6.9-15.8-6.9c-3.5,0-6.3,4.6-6.3,7.8
	c0,6.1,10.2,12.1,22.3,12.1c13.4,0,23.2-7.3,23.2-20.6C65.6,351.5,36.1,353.3,36.1,344z"/>
<path class="st0" d="M112.9,326.8c-3.6,0-7.3,1.3-7.3,4.4v22.7H87.2v-22.7c0-3-3.6-4.4-7.3-4.4s-7.3,1.3-7.3,4.4v59
	c0,2.9,3.6,4.4,7.3,4.4s7.3-1.5,7.3-4.4V365h18.4v25.2c0,2.9,3.6,4.4,7.3,4.4c3.6,0,7.3-1.5,7.3-4.4v-59
	C120.1,328.1,116.5,326.8,112.9,326.8z"/>
<path class="st0" d="M152.2,326.8c-12.8,0-22.7,6-22.7,21.9v24.6c0,16,9.9,21.9,22.7,21.9s22.8-6,22.8-21.9v-24.6
	C175,332.7,164.9,326.8,152.2,326.8z M160.5,373.3c0,6.4-3.1,9.3-8.3,9.3c-5.2,0-8.2-2.8-8.2-9.3v-24.6c0-6.4,3-9.3,8.2-9.3
	s8.3,2.8,8.3,9.3V373.3z"/>
<path class="st0" d="M208.8,326.8h-19.2c-3.2,0-5.4,2.1-5.4,4.4v59c0,2.9,3.6,4.4,7.3,4.4s7.3-1.5,7.3-4.4v-20h9.2
	c12.8,0,22.8-6,22.8-21.6V348C230.8,332.5,221.1,326.8,208.8,326.8z M216.3,349.7c0,6.3-3.1,9.3-8.3,9.3h-9.2v-19.6h9.2
	c5.2,0,8.3,2.9,8.3,9.3V349.7z"/>
<path class="st0" d="M257.1,594.2c3.9,0,7.1-3.2,7.1-7.1V478.6c0-3.9-3.2-7.1-7.1-7.1s-7.1,3.2-7.1,7.1V580h-95.1v-91.4
	c0-16.9-13.8-30.7-30.7-30.7H-38.6c-16.9,0-30.7,13.8-30.7,30.7V580h-98.4v-31.5c0-3.9-3.2-7.1-7.1-7.1c-3.9,0-7.1,3.2-7.1,7.1v38.6
	c0,3.9,3.2,7.1,7.1,7.1L257.1,594.2L257.1,594.2z M140.6,488.7V580H48.2V472.1H124C133.3,472.1,140.6,479.6,140.6,488.7z M-55,488.7
	c0-9.1,7.4-16.5,16.5-16.5h72.6V580H-55V488.7L-55,488.7z"/>
<path class="st0" d="M262,303.2v-9.6c0-13.1-2.3-25.4-6.5-37.1c6.6-10.1,16.6-31.7,10.4-63.6c-1.1-5.8-5.6-10.2-11.3-11.3
	c-20.7-4.2-44.9-3.1-62,10.8c-12.2-4.7-25.3-7.3-39.2-7.3s-27,2.6-39.2,7.3c-1.2-1-2.7-2.2-4.6-3.3c-1.5-16.8-19-25.9-21.9-42.1
	c-2.5-13.6-6.7-28.7-25.3-34.7c-4.6-1.5-9.7-2.3-14.9-2.3c-12.1,0-25.7,4.1-40.6,12.2c-13.1-6.1-28.1-9.2-44.7-9.2s-31.6,3-44.5,9.2
	c-16.6-9.1-36.7-15.9-55.5-9.9c-18.7,6-22.9,21.1-25.3,34.7c-0.9,5.2-3.5,10.2-8.2,16.5c-6.4,8.3-13.8,16.6-13.9,27.8
	c-0.2,16.8,16,29.5,32,29.5c2.9,0,6.1-0.4,9.2-1.1c-3.7,19.8-6.5,46.3-6.9,83.1h-23.5c-13.7,0-24.9,11.2-24.9,24.9v68.1
	c0,11.3,7.6,20.8,17.8,23.9v100.6c0,3.9,3.2,7.1,7.1,7.1s7.1-3.2,7.1-7.1v-99.6H250v29.6c0,3.9,3.2,7.1,7.1,7.1s7.1-3.2,7.1-7.1
	v-30.6c10.3-3,17.8-12.6,17.8-23.8v-68.1C282,315.6,273.3,305.5,262,303.2z M207.4,199.6c5.6-2.9,14.2-5.8,26.4-5.8
	c5.7,0,11.7,0.7,18,1.9c0.1,0,0.1,0.1,0.1,0.1c3.9,20,0.4,35.1-3.9,44.8c-0.9-1.5-1.8-3.1-2.7-4.6
	C235.9,221,222.7,208.4,207.4,199.6z M153.4,199.3c51.2,0,94.4,43.1,94.4,94.4v9.1H58.9v-9.1C58.9,242.5,102.2,199.3,153.4,199.3z
	 M60.9,194.7c12.9-1.6,26.5-1.2,38.2,4.9c0,0,0.1,0,0.1,0.1c-11.5,6.7-21.8,15.5-30.3,25.8c-3.8,4.7-7.3,9.8-10.3,15.1v-0.1
	c-6.1-13.9-6.8-30-3.8-44.7C54.9,195.7,60.9,194.7,60.9,194.7z M21.2,130.7c14.3-6.5,26.7-8.1,36.6-5c10.3,3.3,13.3,10.6,15.8,23.7
	c1.8,9.6,7.2,17.9,13.2,25.4c1.8,2.2,3.6,4.4,5,6.7c-3.4-0.9-6.9-1.4-10.6-1.8c-7.8-0.8-15.8-0.4-23.6,0.8c0,0-2.7-6.2-3.8-8.5
	c-6.5-14-14.7-25.4-24.3-34.5C26.9,135.3,24.1,132.9,21.2,130.7z M-153.5,206.5c-8.2,0-17.9-6.1-17.8-15.1c0.1-7.6,6.6-13.6,11-19.3
	c3.9-5,9.2-12.8,11-22.5c2.7-14.9,10-25.3,26.4-25.3c7.7,0,16.5,2.2,26,6.5c-0.3,0.2-0.6,0.4-0.9,0.6
	c-14.8,11.1-26.6,27.1-35.1,48.2c-2.5,6.1-5.2,13.8-7.8,23.9C-145.3,205.5-149.6,206.5-153.5,206.5z M-119.8,184.9
	c15.7-38.8,42.6-57.7,81.9-57.7c34.3,0,62.1,17.3,77.5,47.9c1.1,2.4,4.4,9.6,4.9,11c0,0,0,0,0,0.1c-3.2,3.5-3.9,8.6-4.5,13.1
	c-2.6,19.6,0.6,40.7,11.4,57.4c-4.3,11.6-6.4,23.9-6.5,36.3c0,3.3,0,6.5,0,9.8H-137C-136.7,267.8-134.3,220.7-119.8,184.9z
	 M267.8,395.7c0,6-4.8,10.7-10.7,10.7h-431.8c-6,0-10.7-4.8-10.7-10.7v-68.1c0-6,4.8-10.7,10.7-10.7h431.8c6,0,10.7,4.8,10.7,10.7
	V395.7L267.8,395.7z"/>
<rect x="-155.1" y="629.9" class="st1" width="399.6" height="114.6"/>
<g class="st2">
	<path class="st0" d="M-136.8,628c1.7,0,3,0.5,3.8,1.6c0.9,1.1,1.3,2.3,1.2,3.6c0,1.3-0.5,2.5-1.5,3.6c-0.9,1.1-2.3,1.6-4,1.6h-24.3
		v0.1l-0.7,14.2c-0.2,4.2-0.4,8.9-0.6,14.3c-0.2,5.3-0.4,10.9-0.6,16.5c-0.2,5.7-0.3,11.3-0.4,16.7c0,5.5-0.1,10.4-0.1,14.7
		c0,4.3-0.1,7.9-0.1,10.6c0,2.8,0,4.3-0.1,4.6c-0.2,0.6-0.8,0.9-1.9,1.1c-1.1,0.1-2.3,0.1-3.6-0.2c-1.3-0.3-2.6-0.8-3.9-1.4
		c-1.3-0.7-2.2-1.5-2.9-2.6c-0.4-0.5-0.8-2-1.3-4.7c-0.5-2.6-0.9-6-1.4-9.9c-0.5-4-0.9-8.4-1.4-13.4c-0.5-5-0.9-10-1.3-15.3
		c-0.4-5.1-0.7-10.1-1-15.1c-0.3-5-0.5-9.5-0.6-13.5c-0.1-4-0.2-7.4-0.3-10.1c0-2.7-0.1-4.3-0.1-4.9c0-0.3,0-0.5,0.1-0.8
		c0-0.2,0.1-0.5,0.2-0.9c-3,0.2-6,0.3-9,0.4c-3,0-6,0.1-9.1,0.2c-1.7,0.1-3-0.4-3.8-1.5c-0.9-1.1-1.2-2.3-1.1-3.6
		c0.1-1.3,0.6-2.6,1.5-3.7c0.9-1.1,2.2-1.7,4-1.8c10.8-0.4,21.5-0.6,32.2-0.7C-158.3,627.7-147.6,627.8-136.8,628z"/>
	<path class="st0" d="M-132.4,665.7c-0.9,12.2-1.7,23.2-2.4,32.9c-0.3,4.2-0.6,8.2-0.9,12.2c-0.3,4-0.6,7.6-0.9,10.8
		c-0.3,3.2-0.5,5.8-0.7,7.8c-0.2,2-0.3,3.1-0.4,3.3c-0.2,0.5-0.8,0.7-1.7,0.7c-0.9,0-2-0.1-3.2-0.4c-1.2-0.3-2.3-0.7-3.5-1.3
		c-1.1-0.6-2-1.3-2.6-2.2c-0.4-0.6-0.7-2.4-1.1-5.6c-0.3-3.2-0.7-7-1-11.5c-0.3-4.5-0.6-9.3-0.9-14.4c-0.2-5.1-0.5-9.9-0.6-14.3
		c-0.2-4.4-0.3-8.3-0.4-11.4c-0.1-3.2-0.1-5-0.1-5.6c0-0.9,0.3-1.5,0.8-2.1c0.5-0.5,1.2-1,1.9-1.3c0.8-0.4,1.5-0.6,2.3-0.7
		c0.8-0.1,1.5-0.1,2.1-0.1s1.6,0,3.1,0.1c1.5,0.1,3,0.2,4.5,0.4c1.5,0.2,2.8,0.5,4,1C-133,664.3-132.4,664.9-132.4,665.7z
		 M-142.6,656.1c-2.7,0-4.8-0.8-6.2-2.5c-1.4-1.7-2.1-3.5-2.1-5.4c0-1.9,0.7-3.7,2.1-5.3c1.4-1.6,3.5-2.4,6.2-2.4
		c2.8,0,5,0.8,6.4,2.5c1.4,1.7,2.1,3.5,2.1,5.4c0,1.9-0.8,3.7-2.2,5.3C-137.7,655.2-139.8,656.1-142.6,656.1z"/>
	<path class="st0" d="M-62.2,697.2c0.7-1.6,1.7-2.7,3.1-3.2c1.4-0.5,2.8-0.6,4.1-0.3c1.3,0.3,2.4,1.1,3.2,2.2
		c0.8,1.1,0.9,2.5,0.2,4.1c-2.3,5.6-5.3,10.7-9.2,15.5c-3.9,4.7-8.3,8.5-13.3,11.4c-5,2.9-10.4,4.6-16.2,5.2
		c-5.8,0.6-11.8-0.4-17.8-3c-6.1-2.6-10.9-6.4-14.1-11.1c-3.3-4.8-5.3-10-6.2-15.7c-0.9-5.7-0.6-11.6,0.8-17.7
		c1.4-6.1,3.6-11.7,6.7-17c3.1-5.3,6.9-9.9,11.5-13.8c4.6-3.9,9.7-6.6,15.4-8c5.3-1.2,10.5-1.3,15.7-0.3c5.2,1,9.6,3,13.3,6
		c3.7,3,6.3,6.8,7.7,11.6c1.5,4.7,1.1,10.2-1.2,16.3c-1.9,5.3-4.7,9.6-8.4,12.8c-3.7,3.2-7.9,5.6-12.6,7.2
		c-4.7,1.6-9.6,2.5-14.9,2.8c-5.2,0.2-10.3,0-15.3-0.6c1.2,5.1,3.1,9.2,5.7,12.4c2.6,3.2,5.6,5.3,8.9,6.4c3.3,1.1,6.9,1,10.8-0.2
		c3.9-1.2,7.8-3.8,11.8-7.7c2.2-2.2,4.1-4.6,5.9-7.2C-64.8,702.6-63.3,699.9-62.2,697.2z M-67.9,670.2c0.1-4.3-0.9-7.5-2.9-9.7
		c-2-2.2-4.6-3.7-7.7-4.5c-3.4-0.8-6.6-0.7-9.6,0.3c-3,0.9-5.7,2.4-8.3,4.5c-2.6,2-4.8,4.5-6.7,7.4c-1.9,2.9-3.5,6-4.8,9.2
		c-1.6,4.3-2.5,8.6-2.7,13.1c4.6,0.8,9.3,1.2,14,1.2c4.7,0,9.2-0.8,13.7-2.6c4-1.6,7.4-4,10.4-7.3S-68,674.7-67.9,670.2z"/>
	<path class="st0" d="M41.2,675.5c1.6,8.6,2.6,17.4,2.8,26.2c0.2,8.9,0.4,17.7,0.5,26.5c0.1,1.7-0.4,3-1.5,3.9
		c-1.1,0.9-2.3,1.3-3.7,1.3c-1.4,0-2.7-0.4-3.9-1.3c-1.2-0.9-1.8-2.2-1.8-3.9c-0.1-8.6-0.2-17.2-0.4-25.9
		c-0.1-8.7-1.1-17.2-2.9-25.7c-1.1-5.8-3.1-10.3-5.8-13.5c-2.7-3.2-5.8-5.1-9.3-5.6c-3.5-0.5-7,0.3-10.8,2.6
		c-3.7,2.2-7.2,5.9-10.4,11c-3.1,4.3-5.9,8.7-8.4,13.5c-2.5,4.7-4.7,9.6-6.8,14.5c-2.1,5-4,10-5.7,15.1c-1.8,5.1-3.5,10.2-5.3,15.3
		c-1,0.9-2.2,1.4-3.5,1.6c-1.3,0.2-2.6,0.2-3.9-0.1c-1.3-0.2-2.4-0.7-3.5-1.3c-1-0.6-1.7-1.3-2-2.2c-0.2-0.6-0.4-2.1-0.6-4.6
		c-0.2-2.5-0.4-5.6-0.6-9.3c-0.1-3.7-0.3-7.8-0.4-12.5c-0.1-4.6-0.1-9.4-0.1-14.2s0-9.6,0.1-14.3c0.1-4.7,0.2-8.9,0.3-12.6
		c0.1-3.7,0.2-6.9,0.4-9.4c0.1-2.5,0.2-4,0.2-4.6c0-0.9,0.3-1.7,1-2.3c0.7-0.6,1.4-1.1,2.3-1.5c0.9-0.4,1.7-0.6,2.7-0.7
		c0.9-0.1,1.7-0.1,2.4,0c0.7,0.1,1.8,0.2,3.3,0.4s3.1,0.4,4.8,0.8c1.6,0.4,3,0.9,4.2,1.6c1.2,0.7,1.7,1.5,1.6,2.4
		c-0.4,2.7-0.8,5.8-1.2,9.2c-0.4,3.4-0.9,6.8-1.3,10.4c-0.4,3.6-0.9,7.3-1.3,11c-0.5,3.7-0.9,7.4-1.3,10.9c0,0.4,0,0.7-0.1,1
		c0,0.3-0.1,0.6-0.1,0.9c0.2-0.4,0.4-0.8,0.6-1.2c0.2-0.4,0.4-0.8,0.6-1.2c1.6-3.6,3.6-7.6,6-12s5.2-8.6,8.3-12.7
		c3.1-4.1,6.6-7.6,10.4-10.7c3.8-3.1,8-5.1,12.4-6c4.6-0.9,8.7-0.8,12.3,0.5c3.5,1.3,6.6,3.3,9.2,6.1c2.6,2.8,4.7,6.2,6.4,10.1
		C39.1,666.8,40.3,671,41.2,675.5z"/>
	<path class="st0" d="M126.6,626.3c0.7,0.1,1.8,0.2,3.4,0.2c1.6,0,3.2,0.2,4.9,0.5c1.7,0.3,3.1,0.7,4.4,1.3c1.3,0.6,1.9,1.4,1.8,2.6
		c-0.1,1.2-0.2,2.6-0.3,4.3c-0.1,1.3-0.2,3-0.2,5c0,2-0.2,4.2-0.4,6.5c-0.3,4.7-0.6,10.1-0.9,16c-0.3,6-0.6,12.2-0.8,18.6
		c-0.3,6.3-0.5,12.6-0.6,18.7c-0.1,6.1-0.3,11.6-0.4,16.5c-0.1,4.9-0.2,8.9-0.3,12c-0.1,3.1-0.2,4.8-0.3,5.1
		c-0.2,0.6-0.8,0.9-1.9,1.1c-1.1,0.1-2.3,0-3.6-0.3c-1.3-0.3-2.6-0.9-3.9-1.6c-1.3-0.8-2.2-1.7-2.9-2.8c-0.8-1.2-1.4-3.5-1.8-6.8
		c-0.5-3.3-0.9-6.9-1.3-10.6c-0.4-3.8-0.6-7.5-0.8-11.1c-0.1-3.6-0.2-6.3-0.2-8.2c-1.1,2.4-2.6,5-4.4,8s-3.8,6-6,9
		c-2.2,3-4.7,6-7.3,8.8c-2.6,2.8-5.4,5.4-8.4,7.6c-2.9,2.2-6,4-9.2,5.4c-3.2,1.4-6.4,2-9.6,1.9c-4.9,0-9.3-1.3-13.1-3.8
		c-3.8-2.6-6.8-5.9-8.9-10.1c-2.3-4.3-3.7-8.8-4.4-13.6c-0.7-4.8-0.6-9.6,0.1-14.4c0.7-4.8,2.1-9.4,4-13.8c2-4.4,4.5-8.5,7.5-12.2
		c2.7-3.3,5.9-6.1,9.6-8.4c3.6-2.3,7.5-4,11.6-5.2c4.1-1.1,8.3-1.7,12.7-1.7s8.6,0.7,12.8,2c2,0.6,4,1.3,6,2.3s3.8,2.2,5.5,3.5
		c-0.1-3.3-0.2-6.4-0.3-9.4c-0.1-2.9-0.2-5.5-0.2-7.7c0-2.2-0.1-4.1-0.1-5.5c0-1.5,0-2.4,0-2.8c0-1.1,0.3-2.1,0.9-3
		c0.6-0.9,1.3-1.5,2.2-2.1c0.9-0.5,1.7-0.9,2.6-1.1C125.2,626.4,126,626.3,126.6,626.3z M67.2,719.7c2.3,2,4.6,3.1,7,3.3
		c2.4,0.2,4.8-0.2,7.2-1.2c2.4-1,4.7-2.4,7-4.3c2.2-1.9,4.3-3.9,6.3-6.2c2-2.2,3.8-4.4,5.4-6.7c1.6-2.2,2.9-4.1,4-5.7
		c2.7-4.2,5.3-8.5,7.6-12.9c2.3-4.4,4.1-9.1,5.5-13.9c-0.1-0.4-0.3-0.9-0.7-1.4c-2-2.7-4.6-4.9-7.8-6.4c-3.2-1.5-6.5-2.5-9.8-3
		c-7.1-0.8-13.6,0.4-19.6,3.5c-6,3.1-10.6,7.6-14,13.7c-1.6,2.8-2.9,6.1-3.9,9.9c-1,3.8-1.5,7.6-1.6,11.4c0,3.8,0.5,7.5,1.6,11.1
		C62.5,714.4,64.4,717.4,67.2,719.7z"/>
	<path class="st0" d="M214.9,648c0.7,0.1,1.8,0.2,3.4,0.4c1.6,0.1,3.2,0.4,4.8,0.8c1.6,0.4,3,0.9,4.3,1.4c1.2,0.6,1.8,1.3,1.7,2.1
		c-0.1,0.9-0.2,2-0.4,3.3c-0.3,2.1-0.6,5-0.9,8.8c-0.3,3.6-0.6,7.7-1,12.4c-0.4,4.7-0.8,9.5-1.1,14.5c-0.3,4.9-0.5,9.7-0.8,14.5
		c-0.2,4.7-0.4,9-0.6,12.7c-0.1,3.7-0.3,6.8-0.4,9.2c-0.1,2.4-0.2,3.8-0.3,4c-0.2,0.5-0.8,0.8-1.9,0.9c-1.1,0.1-2.3,0.1-3.6-0.2
		c-1.3-0.3-2.6-0.7-3.9-1.3c-1.3-0.6-2.2-1.3-2.9-2.3c-0.3-0.5-0.6-1.9-1.1-4.2c-0.4-2.3-0.8-5.2-1.2-8.8c-0.4-3.5-0.8-7.5-1.1-11.8
		c-0.4-4.3-0.7-8.8-0.9-13.3c0-0.8,0-1.5-0.1-2.3c0-0.8-0.1-1.6-0.1-2.3c-2.8,6.1-6,11.9-9.4,17.7c-3.5,5.7-7.5,11-12.1,15.8
		c-2.3,2.4-5,4.7-8.2,7c-3.2,2.3-6.5,3.9-9.9,4.9c-3.4,1-6.7,1-9.9,0.1c-3.2-0.9-5.9-3.3-8.2-7.3c-2-3.5-3.3-7.3-4-11.3
		c-0.7-4-0.9-8.1-0.7-12.2c0.2-4.1,0.9-8.2,2-12.1c1.1-4,2.5-7.7,4.2-11.2c3-6.2,7.1-11.8,12.1-16.7c5.1-4.9,10.9-8.5,17.5-10.8
		c4.3-1.6,8.8-2.4,13.5-2.3c4.8,0.1,9.2,1.2,13.1,3.3c0.7-1.3,1.9-2.2,3.6-2.8C212.3,647.9,213.7,647.8,214.9,648z M204.1,666.1
		c0.4-0.9,0.9-1.6,1.6-2.3c-2-2.6-4.4-4.1-7.4-4.7c-2.9-0.6-6-0.5-9.2,0.1c-3.2,0.6-6.2,1.7-9.2,3.1c-3,1.5-5.5,3.1-7.4,4.8
		c-2.7,2.3-5.2,4.8-7.2,7.7c-2.1,2.9-3.9,5.9-5.3,9.2c-1.5,3.2-2.6,6.6-3.3,10.1c-0.8,3.5-1.1,7-1.1,10.5c0,1.6,0.1,3.5,0.4,5.7
		c0.2,2.2,0.8,4.3,1.6,6.1c0.8,1.8,1.9,3.3,3.3,4.3c1.4,1,3.2,1.1,5.5,0.2c3.3-1.3,6.4-3.4,9.2-6.2c2.8-2.8,5.2-5.5,7.2-8.2
		c4.7-6.1,8.8-12.7,12.1-19.6C197.9,680,201.1,673,204.1,666.1z"/>
	<path class="st0" d="M259.8,673.5c3.9,2.6,7.4,5.3,10.6,7.9c3.2,2.6,5.9,5.4,8.1,8.3c2.2,2.9,3.9,6,5,9.3c1.1,3.3,1.5,6.9,1.2,10.9
		c-0.6,7.2-3.1,13-7.5,17.4c-4.4,4.4-10.1,6.6-16.9,6.7c-3.9,0-7.4-0.9-10.6-2.6c-3.2-1.7-5.9-4-8.2-6.9c-2.3-2.8-4-6.1-5.2-9.7
		c-1.2-3.6-1.8-7.4-1.7-11.3c0.1-1.8,0.7-3.1,1.8-4c1.1-0.9,2.4-1.3,3.7-1.3c1.3,0,2.5,0.4,3.6,1.3c1.1,0.9,1.6,2.2,1.5,4
		c-0.1,2.1,0.1,4.2,0.5,6.3c0.4,2.1,1.1,4.1,2.1,6c1,1.8,2.3,3.5,3.8,4.8c1.6,1.4,3.4,2.3,5.5,2.9c3.2,0.9,6,0.8,8.3-0.4
		c2.3-1.2,3.9-2.9,4.8-5c0.8-1.9,1-4.1,0.6-6.5c-0.3-2.5-1.3-4.8-2.9-7.1c-2.2-3-5.1-5.8-8.8-8.4s-7.5-5.5-11.5-8.8
		c-2.3-1.9-4.4-3.8-6.5-5.7c-2.1-1.9-3.9-4-5.5-6.5c-1.6-2.4-2.9-5.2-3.8-8.4c-0.9-3.2-1.3-7.1-1.2-11.6c0.1-5.2,1.7-9.5,4.7-12.9
		c3-3.4,6.7-5.9,11.1-7.4c4.3-1.5,9-2,14-1.6c5,0.5,9.6,2,13.6,4.7c2.8,1.8,5.1,3.9,6.8,6.3c1.7,2.4,3,5,3.8,7.8
		c0.8,2.8,1.2,5.7,1.1,8.7c0,3-0.4,6.1-1.1,9.2c-0.4,1.7-1.2,2.8-2.5,3.3c-1.3,0.5-2.6,0.6-3.9,0.2c-1.3-0.4-2.4-1.2-3.3-2.3
		c-0.9-1.2-1.2-2.6-0.9-4.3c0.9-3.1,1.1-6.1,0.7-8.9c-0.4-2.8-1.3-5.3-2.7-7.4c-1.4-2.1-3.4-3.7-6-5c-2.6-1.2-5.6-1.8-9.2-1.8
		c-3.1,0.1-5.9,0.9-8.4,2.4c-2.5,1.5-3.9,3.9-4.3,7.1c-0.3,2.3,0,4.4,0.8,6.2c0.8,1.9,2,3.6,3.5,5.2c1.5,1.6,3.3,3.1,5.2,4.5
		C255.7,670.7,257.8,672.1,259.8,673.5z"/>
</g>
</svg>
