<svg height="512pt" viewBox="-1 0 512 512.00227" width="512pt" xmlns="http://www.w3.org/2000/svg"><path d="m322.511719 140.964844c-4.140625 0-7.5 3.359375-7.5 7.5v9.1875c0 4.144531 3.359375 7.5 7.5 7.5s7.5-3.355469 7.5-7.5v-9.1875c0-4.140625-3.359375-7.5-7.5-7.5zm0 0"/><path d="m424.039062 165.152344c4.140626 0 7.5-3.355469 7.5-7.5v-9.1875c0-4.140625-3.359374-7.5-7.5-7.5-4.140624 0-7.5 3.359375-7.5 7.5v9.1875c0 4.144531 3.359376 7.5 7.5 7.5zm0 0"/><path d="m359.492188 161.144531c4.191406 1.804688 8.859374 2.8125 13.785156 2.8125 4.921875 0 9.59375-1.007812 13.78125-2.8125 4.398437-1.894531 3.058594-8.453125-1.730469-8.453125h-24.105469c-4.789062 0-6.128906 6.558594-1.730468 8.453125zm0 0"/><path d="m345.164062 179.832031c4.183594 4.785157 10.335938 7.53125 16.878907 7.53125 4.011719 0 7.875-1.035156 11.230469-2.941406 3.355468 1.90625 7.222656 2.941406 11.234374 2.941406 6.542969 0 12.695313-2.746093 16.878907-7.53125 2.726562-3.121093 2.410156-7.859375-.710938-10.585937-3.117187-2.726563-7.855469-2.40625-10.582031.710937-2.796875 3.203125-8.375 3.199219-11.171875 0-2.9375-3.359375-8.355469-3.351562-11.292969 0-2.804687 3.203125-8.371094 3.203125-11.171875 0-2.726562-3.117187-7.464843-3.433593-10.582031-.710937-3.121094 2.726562-3.4375 7.464844-.710938 10.585937zm0 0"/><path d="m116.238281 96.601562c-4.140625 0-7.5 3.355469-7.5 7.5v9.910157c0 4.144531 3.359375 7.5 7.5 7.5 4.144531 0 7.5-3.355469 7.5-7.5v-9.910157c0-4.144531-3.355469-7.5-7.5-7.5zm0 0"/><path d="m225.785156 96.601562c-4.140625 0-7.5 3.355469-7.5 7.5v9.910157c0 4.144531 3.359375 7.5 7.5 7.5s7.5-3.355469 7.5-7.5v-9.910157c0-4.144531-3.359375-7.5-7.5-7.5zm0 0"/><path d="m156.140625 117.78125c4.519531 1.945312 9.558594 3.035156 14.871094 3.035156s10.351562-1.089844 14.871093-3.035156c4.746094-2.046875 3.300782-9.121094-1.867187-9.121094h-26.007813c-5.164062 0-6.613281 7.074219-1.867187 9.121094zm0 0"/><path d="m200.1875 126.964844c-3.121094-2.722656-7.855469-2.40625-10.582031.714844-3.417969 3.90625-9.472657 3.472656-12.945313 0-3.109375-3.113282-8.195312-3.546876-11.292968 0-3.253907 3.71875-9.695313 3.71875-12.945313 0-2.726563-3.121094-7.464844-3.441407-10.582031-.714844-3.121094 2.726562-3.441406 7.464844-.710938 10.585937 4.402344 5.035157 10.878906 7.925781 17.765625 7.925781 4.34375 0 8.519531-1.152343 12.117188-3.261718 3.601562 2.113281 7.777343 3.261718 12.121093 3.261718 6.886719 0 13.363282-2.890624 17.765626-7.925781 2.726562-3.121093 2.40625-7.855469-.710938-10.585937zm0 0"/><path d="m80.160156 229.199219h-20.3125c-3.433594 0-5.691406 2.160156-5.691406 4.613281v62.414062c0 3.140626 3.828125 4.710938 7.652344 4.710938 3.828125 0 7.65625-1.574219 7.65625-4.710938v-21.195312h9.714844c13.542968 0 24.140624-6.28125 24.140624-22.769531v-.492188c0-16.484375-10.203124-22.570312-23.160156-22.570312zm7.851563 24.242187c0 6.671875-3.335938 9.8125-8.832031 9.8125h-9.714844v-20.707031h9.714844c5.496093 0 8.832031 3.140625 8.832031 9.8125zm0 0"/><path d="m151.601562 242.546875c2.941407 0 4.609376-3.140625 4.609376-6.769531 0-3.140625-1.371094-6.578125-4.609376-6.578125h-34.9375c-3.335937 0-6.671874 1.570312-6.671874 4.710937v62.316406c0 3.140626 3.335937 4.710938 6.671874 4.710938h34.9375c3.238282 0 4.609376-3.4375 4.609376-6.578125 0-3.628906-1.667969-6.769531-4.609376-6.769531h-26.300781v-16.683594h14.71875c3.238281 0 4.613281-3.140625 4.613281-5.789062 0-3.140626-1.667968-5.988282-4.613281-5.988282h-14.71875v-16.585937h26.300781zm0 0"/><path d="m205.375 229.199219h-42.394531c-3.238281 0-4.613281 3.535156-4.613281 6.773437 0 3.726563 1.671874 6.96875 4.613281 6.96875h13.542969v53.285156c0 3.140626 3.828124 4.710938 7.65625 4.710938 3.828124 0 7.652343-1.574219 7.652343-4.710938v-53.285156h13.542969c2.945312 0 4.613281-3.242187 4.613281-6.96875 0-3.238281-1.375-6.773437-4.613281-6.773437zm0 0"/><path d="m249.335938 247.453125c0-3.042969 2.84375-5.886719 9.8125-5.886719 8.046874 0 9.914062 3.726563 13.445312 3.726563 4.316406 0 6.082031-5.394531 6.082031-8.046875 0-7.652344-14.324219-8.632813-19.527343-8.632813-12.265626 0-25.121094 5.59375-25.121094 20.3125 0 22.964844 31.109375 20.902344 31.109375 32.777344 0 4.710937-5.003907 6.476563-9.519531 6.476563-9.125 0-12.070313-7.261719-16.683594-7.261719-3.726563 0-6.671875 4.90625-6.671875 8.242187 0 6.476563 10.792969 12.757813 23.648437 12.757813 14.230469 0 24.535156-7.652344 24.535156-21.785157 0-24.730468-31.109374-22.867187-31.109374-32.679687zm0 0"/><path d="m330.488281 229.199219c-3.824219 0-7.652343 1.375-7.652343 4.613281v24.042969h-19.527344v-24.042969c0-3.238281-3.828125-4.613281-7.65625-4.613281s-7.652344 1.375-7.652344 4.613281v62.414062c0 3.140626 3.824219 4.710938 7.652344 4.710938s7.65625-1.574219 7.65625-4.710938v-26.59375h19.527344v26.59375c0 3.140626 3.828124 4.710938 7.652343 4.710938 3.828125 0 7.65625-1.574219 7.65625-4.710938v-62.414062c0-3.238281-3.828125-4.613281-7.65625-4.613281zm0 0"/><path d="m371.996094 229.199219c-13.539063 0-24.039063 6.28125-24.039063 23.160156v26.007813c0 16.878906 10.5 23.15625 24.039063 23.15625 13.542968 0 24.144531-6.277344 24.144531-23.15625v-26.007813c0-16.878906-10.601563-23.160156-24.144531-23.160156zm8.832031 49.167969c0 6.769531-3.335937 9.8125-8.832031 9.8125-5.492188 0-8.734375-3.042969-8.734375-9.8125v-26.007813c0-6.769531 3.242187-9.8125 8.734375-9.8125 5.496094 0 8.832031 3.042969 8.832031 9.8125zm0 0"/><path d="m431.957031 229.199219h-20.316406c-3.433594 0-5.691406 2.160156-5.691406 4.613281v62.414062c0 3.140626 3.828125 4.710938 7.65625 4.710938s7.652343-1.574219 7.652343-4.710938v-21.195312h9.714844c13.542969 0 24.144532-6.28125 24.144532-22.769531v-.492188c0-16.484375-10.207032-22.570312-23.160157-22.570312zm7.851563 24.242187c0 6.671875-3.335938 9.8125-8.832032 9.8125h-9.714843v-20.707031h9.714843c5.496094 0 8.832032 3.140625 8.832032 9.8125zm0 0"/><path d="m482.925781 512.003906c4.144531 0 7.5-3.359375 7.5-7.5v-114.777344c0-4.144531-3.355469-7.5-7.5-7.5-4.140625 0-7.5 3.355469-7.5 7.5v107.277344h-100.617187v-96.578125c0-17.90625-14.5625-32.472656-32.464844-32.472656h-171.984375c-17.902344 0-32.464844 14.566406-32.464844 32.472656v96.578125h-104.050781v-33.28125c0-4.140625-3.355469-7.5-7.5-7.5-4.140625 0-7.5 3.359375-7.5 7.5v40.78125c0 4.140625 3.359375 7.5 7.5 7.5zm-123.117187-111.578125v96.578125h-97.671875v-114.050781h80.207031c9.628906 0 17.464844 7.835937 17.464844 17.472656zm-206.914063 0c0-9.636719 7.832031-17.476562 17.464844-17.476562h76.777344v114.050781h-94.242188zm0 0"/><path d="m488.089844 204.316406v-10.0625c0-13.753906-2.433594-26.949218-6.886719-39.179687 6.992187-10.71875 17.550781-33.535157 11.003906-67.28125-1.179687-6.066407-5.855469-10.765625-11.910156-11.96875-21.917969-4.363281-47.46875-3.296875-65.582031 11.355469-12.859375-4.996094-26.835938-7.742188-41.441406-7.742188-14.605469 0-28.578126 2.746094-41.441407 7.742188-1.316406-1.066407-2.949219-2.269532-4.925781-3.511719-1.617188-17.78125-20.125-27.382813-23.226562-44.515625-2.613282-14.449219-7.0625-30.394532-26.84375-36.746094-4.945313-1.585938-10.261719-2.390625-15.792969-2.390625-12.796875 0-27.214844 4.324219-42.902344 12.855469-13.773437-6.421875-29.492187-9.660156-47.128906-9.660156-17.632813 0-33.355469 3.234374-47.136719 9.65625-17.570312-9.554688-38.796875-16.84375-58.6875-10.460938-19.78125 6.347656-24.226562 22.296875-26.84375 36.746094-.992188 5.496094-3.671875 10.847656-8.679688 17.355468-6.761718 8.785157-14.554687 17.625-14.664062 29.371094-.160156 17.832032 16.867188 31.171875 33.777344 31.171875 3.140625 0 6.382812-.410156 9.699218-1.179687-3.925781 20.859375-6.921874 49.003906-7.265624 87.929687h-24.867188c-14.523438 0-26.34375 11.820313-26.34375 26.347657v71.964843c0 11.921875 7.964844 22.015625 18.84375 25.253907v106.355468c0 4.140625 3.359375 7.5 7.5 7.5 4.144531 0 7.5-3.359375 7.5-7.5v-105.261718h441.582031v31.265624c0 4.140626 3.359375 7.5 7.5 7.5 4.144531 0 7.5-3.359374 7.5-7.5v-32.359374c10.882813-3.238282 18.84375-13.328126 18.84375-25.25v-71.96875c0-12.757813-9.117187-23.425782-21.179687-25.832032zm-57.648438-109.632812c5.855469-3.066406 14.953125-6.136719 27.914063-6.136719 5.980469 0 12.378906.667969 19.011719 1.988281.058593.011719.101562.054688.113281.117188 4.121093 21.230468.417969 37.082031-4.089844 47.402344-.929687-1.648438-1.917969-3.269532-2.929687-4.867188-9.972657-15.773438-23.855469-29.167969-40.019532-38.503906zm-57.164062-.246094c54.144531 0 99.816406 45.636719 99.816406 99.816406v9.550782h-199.636719v-9.550782c0-54.15625 45.660157-99.816406 99.820313-99.816406zm-97.730469-4.949219c13.597656-1.742187 28.011719-1.296875 40.414063 5.160157.039062.019531.082031.03125.121093.050781-12.210937 7.058593-23.117187 16.390625-32 27.34375-4.039062 4.980469-7.746093 10.390625-10.921875 16.007812-.015625-.035156-.03125-.070312-.046875-.105469-6.402343-14.664062-7.21875-31.722656-4.042969-47.292968.007813-.039063 6.457032-1.160156 6.476563-1.164063zm-42.03125-67.542969c15.125-6.851562 28.179687-8.644531 38.738281-5.253906 10.875 3.492188 14.144532 11.203125 16.667969 25.136719 1.851563 10.242187 7.617187 18.917969 13.984375 26.917969 1.863281 2.339844 3.75 4.714844 5.324219 7.113281-3.566407-.878906-7.292969-1.5-11.15625-1.878906-8.285157-.8125-16.742188-.429688-24.996094.824219-.035156.007812-2.875-6.59375-4.027344-9.046876-6.914062-14.757812-15.492187-26.921874-25.703125-36.484374-2.792968-2.613282-5.742187-5.074219-8.832031-7.328126zm-184.738281 80.109376c-8.699219 0-18.863282-6.421876-18.777344-16.039063.074219-8.019531 6.984375-14.421875 11.550781-20.359375 4.0625-5.277344 9.683594-13.492188 11.554688-23.828125 2.851562-15.769531 10.582031-26.8125 27.875-26.8125 8.136719 0 17.355469 2.324219 27.511719 6.921875-.289063.210938-.574219.433594-.859376.648438-15.683593 11.726562-28.085937 28.746093-37.097656 51.007812-2.636718 6.511719-5.546875 14.644531-8.292968 25.285156-4.859376 2.109375-9.375 3.175782-13.464844 3.175782zm35.660156-22.835938c16.617188-41.050781 44.9375-61.007812 86.574219-61.007812 36.253906 0 65.65625 18.28125 81.859375 50.578124 1.234375 2.464844 4.636718 10.226563 5.191406 11.636719-.015625.015625-.03125.035157-.046875.050781-3.414063 3.746094-4.097656 9.058594-4.753906 13.925782-2.789063 20.675781.554687 42.957031 12.070312 60.65625-4.460937 12.265625-6.777343 25.328125-6.871093 38.382812-.023438 3.453125 0 6.910156 0 10.363282h-192.253907c.28125-36.851563 2.933594-86.785157 18.230469-124.585938zm409.835938 222.898438c0 6.253906-5.089844 11.34375-11.347657 11.34375h-456.582031c-6.253906 0-11.34375-5.089844-11.34375-11.34375v-71.96875c0-6.253907 5.089844-11.34375 11.34375-11.34375h456.582031c6.257813 0 11.347657 5.089843 11.347657 11.34375zm0 0"/></svg>